<svg version="1.1" id="Layer_1" xmlns="http://www.w3.org/2000/svg" xmlns:xlink="http://www.w3.org/1999/xlink" x="0px" y="0px"
	 width="100%" viewBox="0 0 148 148" enable-background="new 0 0 148 148" xml:space="preserve">
<path fill="#FCFCFC" opacity="1.000000" stroke="none" 
	d="
M46.000000,1.000000 
	C80.244759,1.000000 114.489510,1.000000 149.000000,1.000000 
	C149.000000,23.020182 149.000000,45.041431 148.614136,67.531250 
	C146.819458,67.396202 145.410645,66.792580 144.349274,66.089058 
	C145.733353,64.354805 146.769974,62.720459 147.806610,61.086105 
	C145.939728,60.059818 144.179291,58.580608 142.181549,58.111122 
	C139.015106,57.366985 135.689957,57.298233 132.359070,56.540245 
	C131.822525,53.749081 131.358856,51.361404 131.178848,48.791809 
	C132.674850,47.482716 134.219711,46.551655 135.025818,45.184895 
	C136.425919,42.811047 137.369461,40.167912 138.504425,37.637691 
	C135.929993,37.389931 133.358154,37.106663 130.779312,36.919559 
	C130.140717,36.873226 129.472275,37.109131 128.829788,37.265625 
	C123.005722,38.684238 119.304443,36.239635 118.139839,30.151999 
	C118.130371,30.104368 118.041481,30.065214 118.349182,30.107502 
	C118.796829,29.777185 118.936760,29.404583 119.041153,29.016983 
	C119.005608,29.001986 119.056450,29.060019 119.327286,28.928440 
	C119.988503,27.891850 120.378876,26.986837 120.949951,25.741413 
	C121.420181,23.934231 121.709702,22.467463 122.016029,20.616974 
	C120.849411,16.315802 119.178383,16.274942 114.721588,20.110582 
	C113.931427,20.702036 113.436203,21.244596 112.603806,21.882977 
	C110.832268,22.784433 109.397911,23.590075 107.602600,24.269897 
	C104.952492,23.371180 102.663338,22.598280 100.315475,21.474483 
	C100.133987,20.421906 100.011223,19.720224 99.950195,18.693590 
	C100.052383,17.929855 100.092834,17.491072 100.404617,16.756245 
	C100.637703,14.007322 100.974968,11.474701 100.474899,9.119891 
	C99.686111,5.405424 97.713608,4.952807 94.967110,7.642954 
	C94.065262,8.526305 93.544868,9.799116 92.597809,11.072693 
	C91.831726,12.125437 91.317886,12.999321 90.565346,14.047355 
	C89.894897,14.870946 89.463135,15.520389 88.607147,16.154015 
	C82.584732,15.969020 77.879669,14.604241 77.131729,7.531342 
	C76.083717,5.462703 75.064125,3.766846 74.044525,2.070989 
	C72.987396,3.010036 71.930260,3.949084 70.630371,5.164012 
	C69.434990,8.880652 68.482361,12.321412 67.181702,15.733601 
	C65.893112,15.814893 64.952568,15.924755 63.642979,16.017464 
	C61.851376,16.350206 60.428814,16.700100 58.735069,16.882053 
	C57.174946,15.399771 55.886013,14.085430 54.522713,12.416307 
	C52.759937,9.168834 51.796627,5.203846 46.636322,6.846323 
	C41.969475,5.046592 45.725769,2.923489 46.000000,1.000000 
z"/>
<path fill="#FCFCFC" opacity="1.000000" stroke="none" 
	d="
M74.000000,149.000000 
	C49.734657,149.000000 25.469315,149.000000 1.000000,149.000000 
	C1.000000,121.312775 1.000000,93.625046 1.322939,65.578789 
	C5.029731,67.496521 8.413585,69.772781 12.034129,72.373871 
	C12.905046,75.140709 13.539273,77.582718 14.101171,80.367493 
	C12.641062,81.718575 11.253281,82.726913 9.520638,83.781738 
	C7.630619,84.696342 6.085464,85.564438 4.557438,86.447647 
	C4.574568,86.462746 4.581191,86.506653 4.380386,86.497574 
	C4.179582,86.488495 3.901481,86.778801 3.562580,86.909851 
	C0.710279,90.820129 2.621887,92.468521 6.260015,92.980522 
	C9.164906,93.389320 12.117974,93.455772 15.368424,93.758835 
	C16.122103,93.905037 16.557014,93.966576 17.059692,94.401642 
	C17.718559,97.515869 18.309660,100.256569 18.595877,103.095802 
	C17.167133,104.423592 16.043274,105.652840 14.579839,106.971802 
	C13.293248,109.518845 10.850224,113.043053 11.692613,114.224297 
	C13.827269,117.217606 17.180796,115.298660 20.049868,113.989044 
	C21.966690,113.114082 24.038120,112.577835 26.337505,112.048553 
	C28.051922,113.937309 29.469194,115.667519 31.015100,117.655212 
	C31.419479,118.601036 31.695227,119.289360 31.693993,120.193741 
	C29.993034,124.489815 28.569054,128.569824 27.115059,132.735840 
	C34.097904,134.473160 36.918091,130.336029 40.365952,126.745857 
	C43.694767,128.242310 46.718365,129.799225 49.807419,131.746307 
	C49.591171,135.053406 49.046257,137.979401 49.146427,140.883133 
	C49.191841,142.199539 50.317566,144.328018 51.309521,144.559189 
	C52.723820,144.888779 55.042828,144.303528 55.950680,143.236877 
	C58.000847,140.828110 59.422871,137.884705 61.412979,135.039612 
	C63.166279,134.914154 64.607025,134.907852 66.353073,135.079010 
	C67.756195,135.557510 68.854019,135.858566 70.099594,136.426544 
	C70.535339,137.439957 70.823326,138.186462 71.114799,139.302155 
	C72.078857,142.780884 73.039429,145.890442 74.000000,149.000000 
z"/>
<path fill="#FBFCFC" opacity="1.000000" stroke="none" 
	d="
M149.000000,86.000000 
	C149.000000,106.930687 149.000000,127.861382 149.000000,149.000000 
	C125.979523,149.000000 102.958420,149.000000 79.549156,148.633408 
	C79.798935,145.853806 80.436874,143.440781 81.125206,140.769012 
	C81.176193,140.161301 81.176788,139.812363 81.428322,139.191376 
	C82.125809,137.582169 82.572357,136.244980 83.330093,134.988342 
	C88.614548,135.358627 92.895905,137.571884 96.860069,141.901459 
	C96.971329,142.022949 97.067474,142.200531 97.206261,142.248077 
	C98.653198,142.744003 100.226257,143.773117 101.516266,143.496689 
	C102.324226,143.323547 102.955902,141.225143 103.212593,139.902466 
	C103.453323,138.662079 103.096642,137.305756 103.031509,135.574036 
	C102.115051,131.221954 103.618454,128.672409 107.341713,127.212341 
	C108.541107,126.741997 109.586952,125.880119 110.985497,125.415985 
	C113.090935,126.670670 114.823280,127.947563 116.761627,128.677139 
	C118.826431,129.454315 121.086121,129.713684 123.260727,130.199127 
	C123.164536,128.134552 123.068344,126.069969 122.947159,123.648926 
	C122.331802,120.256981 121.741447,117.221519 121.137756,114.143356 
	C121.124413,114.100670 121.034966,114.099541 121.302246,114.339905 
	C121.992943,114.073303 122.416359,113.566330 122.998688,112.760353 
	C124.099022,111.683037 125.040466,110.904732 126.254402,110.411957 
	C130.831787,111.342575 135.136688,111.987663 139.647827,112.663658 
	C141.136337,106.372925 136.216919,104.191597 132.837036,100.721565 
	C132.500076,99.262627 132.277740,98.136581 132.325134,96.772171 
	C134.112823,90.415039 134.720352,90.121162 140.783676,90.750732 
	C142.110855,90.888535 143.579849,89.660522 145.257904,89.176651 
	C146.688187,88.194519 147.844101,87.097260 149.000000,86.000000 
z"/>
<path fill="#FFFFFF" opacity="1.000000" stroke="none" 
	d="
M45.531342,1.000000 
	C45.725769,2.923489 41.969475,5.046592 46.628284,7.291145 
	C46.938648,10.245109 46.947746,12.612484 46.833572,14.942818 
	C46.710300,14.905775 46.453808,14.883781 46.105637,14.926577 
	C42.447498,17.432383 39.137527,19.895391 35.514812,22.272530 
	C34.460011,21.812206 33.717953,21.437756 32.948929,20.708614 
	C31.913307,18.040825 30.772631,16.668718 28.750824,19.833256 
	C28.335413,19.851219 28.168789,19.839535 27.954063,19.550209 
	C27.259733,19.473942 26.613504,19.675314 25.928675,20.251833 
	C25.584692,22.087282 25.279310,23.547585 24.617943,25.068035 
	C23.790884,27.274397 23.319811,29.420609 22.848738,31.566820 
	C24.549175,31.736317 26.249615,31.905813 28.210327,32.161224 
	C28.940796,32.523937 29.410990,32.800743 29.781261,33.370754 
	C28.779284,34.774895 27.877228,35.885826 26.524597,36.997993 
	C22.712915,37.338848 19.351803,37.678467 15.575365,38.012558 
	C13.773316,38.004536 12.386593,38.002041 10.806564,37.764015 
	C6.153561,39.693840 4.428106,43.274693 4.981560,48.136684 
	C5.311034,51.031059 5.064615,53.623676 1.000000,53.000000 
	C1.000000,35.745216 1.000000,18.490437 1.000000,1.000000 
	C15.686722,1.000000 30.374702,1.000000 45.531342,1.000000 
z"/>
<path fill="#FCFCFC" opacity="1.000000" stroke="none" 
	d="
M1.000000,53.449982 
	C5.064615,53.623676 5.311034,51.031059 4.981560,48.136684 
	C4.428106,43.274693 6.153561,39.693840 10.805037,38.090092 
	C10.976687,39.085926 10.956562,39.520164 10.901951,40.176170 
	C10.867464,40.397942 10.825372,40.844833 10.530805,40.926582 
	C10.467389,42.355915 10.698541,43.703495 11.097778,45.355469 
	C13.799191,49.154510 19.453461,51.047607 17.023193,57.355747 
	C16.632854,58.465797 16.327902,59.265671 15.650972,60.083168 
	C13.849638,60.413101 12.420281,60.725410 10.561401,60.994286 
	C7.087919,61.300564 4.043959,61.650284 1.000000,62.000000 
	C1.000000,59.299988 1.000000,56.599972 1.000000,53.449982 
z"/>
<path fill="#7C8384" opacity="1.000000" stroke="none" 
	d="
M1.000000,62.375000 
	C4.043959,61.650284 7.087919,61.300564 10.561321,61.369202 
	C12.325554,63.193787 13.660342,64.600021 14.993254,66.341003 
	C14.904151,67.621819 14.816923,68.567879 14.754131,69.248917 
	C18.300547,69.857719 21.644680,70.431793 24.994156,71.002937 
	C24.999498,71.000000 24.993631,71.008766 24.999554,71.371704 
	C26.598980,75.839691 31.339779,75.426781 33.907532,78.385101 
	C28.416649,81.342979 18.928864,79.094467 16.332003,73.925789 
	C15.015924,71.306320 13.710157,71.684814 11.797439,72.049042 
	C8.413585,69.772781 5.029731,67.496521 1.322939,65.110130 
	C1.000000,64.250000 1.000000,63.500000 1.000000,62.375000 
z"/>
<path fill="#D3D3D4" opacity="1.000000" stroke="none" 
	d="
M149.000000,85.666672 
	C147.844101,87.097260 146.688187,88.194519 145.249390,88.786644 
	C142.644333,87.187569 140.322174,86.093636 137.989349,84.619392 
	C135.652588,82.494568 133.442703,80.560638 130.975235,79.046501 
	C126.390060,76.232826 121.654648,73.663979 117.237213,70.717461 
	C119.002357,70.301369 120.512085,70.161018 122.221542,70.263596 
	C124.032822,70.852501 125.755302,70.946770 127.232422,71.597763 
	C130.150818,72.883972 132.933426,74.478279 135.883759,76.296738 
	C137.315796,77.457565 138.636246,78.266846 140.186142,79.326752 
	C143.277054,81.051582 146.138535,82.525795 149.000000,84.000000 
	C149.000000,84.444443 149.000000,84.888893 149.000000,85.666672 
z"/>
<path fill="#FBFCFC" opacity="1.000000" stroke="none" 
	d="
M149.000000,83.533142 
	C146.138535,82.525795 143.277054,81.051582 140.334885,78.995323 
	C142.222092,74.812630 144.086960,71.196320 142.012131,66.783112 
	C142.031494,66.588135 142.097992,66.201958 142.415787,66.170532 
	C143.156326,66.155724 143.579071,66.172340 144.001816,66.188957 
	C145.410645,66.792580 146.819458,67.396202 148.614136,67.999908 
	C149.000000,73.022095 149.000000,78.044182 149.000000,83.533142 
z"/>
<path fill="#AEB0B4" opacity="1.000000" stroke="none" 
	d="
M81.074814,141.027771 
	C80.436874,143.440781 79.798935,145.853806 79.080498,148.633408 
	C77.611107,149.000000 76.222221,149.000000 74.416664,149.000000 
	C73.039429,145.890442 72.078857,142.780884 71.365326,139.121094 
	C72.267326,138.190353 73.115929,137.333130 73.545433,137.507599 
	C76.108879,138.548935 78.575615,139.828293 81.074814,141.027771 
z"/>
<path fill="#92979C" opacity="1.000000" stroke="none" 
	d="
M100.374191,21.825378 
	C102.663338,22.598280 104.952492,23.371180 107.671028,24.589729 
	C110.026421,27.995560 112.123299,29.749189 115.268753,26.198055 
	C116.409607,27.655830 117.279457,28.927732 118.149307,30.199631 
	C119.304443,36.239635 123.005722,38.684238 128.829788,37.265625 
	C129.472275,37.109131 130.140717,36.873226 130.779312,36.919559 
	C133.358154,37.106663 135.929993,37.389931 138.504425,37.637691 
	C137.369461,40.167912 136.425919,42.811047 135.025818,45.184895 
	C134.219711,46.551655 132.674850,47.482716 130.940399,48.883621 
	C130.055222,49.046299 129.692184,48.935253 129.329132,48.824203 
	C129.400101,48.674076 129.448669,48.507309 129.545715,48.376522 
	C130.186356,47.513191 130.837402,46.657593 130.670609,46.878590 
	C124.702049,43.877945 118.850296,40.936024 112.777695,37.724667 
	C109.372299,36.300419 106.187752,35.145603 102.641037,33.957649 
	C100.040756,33.204659 97.802635,32.484806 95.192810,31.645401 
	C95.275948,30.895649 95.407784,29.706627 95.512779,28.759731 
	C93.153938,27.762678 91.077339,26.884922 88.935181,25.648876 
	C87.580864,24.860287 86.292114,24.429991 84.708336,23.874300 
	C83.608826,23.499706 82.804344,23.250507 81.848465,22.694307 
	C78.363892,19.372351 74.925842,16.584742 69.695602,16.859867 
	C68.762878,16.402632 68.146309,16.082399 67.529739,15.762169 
	C68.482361,12.321412 69.434990,8.880652 70.902512,5.370771 
	C72.257812,8.538696 74.420494,8.857980 77.160133,7.904124 
	C77.879669,14.604241 82.584732,15.969020 88.669518,16.490337 
	C92.895477,18.503443 96.634834,20.164412 100.374191,21.825378 
z"/>
<path fill="#AEB0B4" opacity="1.000000" stroke="none" 
	d="
M144.349274,66.089058 
	C143.579071,66.172340 143.156326,66.155724 142.231323,65.896774 
	C140.240829,65.078033 138.652542,64.675255 137.285995,63.887684 
	C134.736816,62.418571 132.466187,60.385956 129.804047,59.213757 
	C126.615166,57.809628 123.137848,57.060570 119.554497,55.820866 
	C118.477493,54.148270 117.631447,52.682629 116.814087,50.850166 
	C115.886612,49.986610 114.930458,49.489868 114.012466,48.749481 
	C114.050636,48.505829 114.162590,48.025455 114.456360,47.867424 
	C121.726578,48.714737 127.664185,51.709236 132.431946,56.943729 
	C135.689957,57.298233 139.015106,57.366985 142.181549,58.111122 
	C144.179291,58.580608 145.939728,60.059818 147.806610,61.086105 
	C146.769974,62.720459 145.733353,64.354805 144.349274,66.089058 
M142.483932,63.590984 
	C142.483932,63.590984 142.417221,63.479263 142.483932,63.590984 
z"/>
<path fill="#A3A6AA" opacity="1.000000" stroke="none" 
	d="
M132.359070,56.540245 
	C127.664185,51.709236 121.726578,48.714737 114.322998,47.626945 
	C113.599709,47.355850 113.303558,47.167198 113.001831,46.990189 
	C112.996246,47.001827 113.022018,47.002789 113.046234,46.690823 
	C112.716850,45.912590 112.363258,45.446327 112.005089,44.990944 
	C112.000519,45.001820 112.021446,44.989578 111.990707,44.646961 
	C111.247307,42.890984 110.534637,41.477619 110.189339,40.041801 
	C111.370651,39.344261 112.184601,38.669182 112.998543,37.994099 
	C118.850296,40.936024 124.702049,43.877945 130.670609,46.878590 
	C130.837402,46.657593 130.186356,47.513191 129.545715,48.376522 
	C129.448669,48.507309 129.400101,48.674076 129.329132,48.824203 
	C129.692184,48.935253 130.055222,49.046299 130.656723,49.065536 
	C131.358856,51.361404 131.822525,53.749081 132.359070,56.540245 
z"/>
<path fill="#ADAEB0" opacity="1.000000" stroke="none" 
	d="
M54.597076,12.771090 
	C55.886013,14.085430 57.174946,15.399771 58.774307,17.229782 
	C60.257935,18.770348 61.311794,19.994102 62.626537,20.783165 
	C66.706245,23.231659 70.885071,25.515009 74.648026,27.902252 
	C72.191811,27.970556 70.113007,27.999046 67.718094,27.883579 
	C63.702362,26.085154 59.970589,24.498169 56.312904,22.755672 
	C53.175972,21.261263 50.123802,19.588940 46.975418,17.603416 
	C46.762394,16.435619 46.608101,15.659700 46.453808,14.883781 
	C46.453808,14.883781 46.710300,14.905775 47.227020,14.949818 
	C50.523220,15.779244 52.946819,15.467368 54.597076,12.771090 
z"/>
<path fill="#A3A6AA" opacity="1.000000" stroke="none" 
	d="
M75.025429,27.862442 
	C70.885071,25.515009 66.706245,23.231659 62.626537,20.783165 
	C61.311794,19.994102 60.257935,18.770348 59.045494,17.397722 
	C60.428814,16.700100 61.851376,16.350206 63.780106,16.327286 
	C65.200493,17.774305 66.011551,19.001705 67.046440,19.996180 
	C72.050026,24.804384 78.749458,25.341093 85.005219,27.296385 
	C85.020889,27.990995 85.031960,28.387846 84.625122,28.864458 
	C81.146606,28.583626 78.086021,28.223034 75.025429,27.862442 
z"/>
<path fill="#A1A3A5" opacity="1.000000" stroke="none" 
	d="
M85.000610,26.998627 
	C78.749458,25.341093 72.050026,24.804384 67.046440,19.996180 
	C66.011551,19.001705 65.200493,17.774305 64.149155,16.344437 
	C64.952568,15.924755 65.893112,15.814893 67.181694,15.733599 
	C68.146309,16.082399 68.762878,16.402632 69.747002,17.205082 
	C72.775291,19.468182 75.345528,21.415096 78.145164,22.941162 
	C79.144157,23.485706 80.698830,23.010853 81.999855,23.001308 
	C82.804344,23.250507 83.608826,23.499706 84.707596,24.249191 
	C85.001457,25.499193 85.001038,26.248909 85.000610,26.998627 
z"/>
<path fill="#A3A6AA" opacity="1.000000" stroke="none" 
	d="
M54.522713,12.416307 
	C52.946819,15.467368 50.523220,15.779244 47.350292,14.986860 
	C46.947746,12.612484 46.938648,10.245109 46.937584,7.432911 
	C51.796627,5.203846 52.759937,9.168834 54.522713,12.416307 
z"/>
<path fill="#C2C3C4" opacity="1.000000" stroke="none" 
	d="
M92.850044,10.893831 
	C93.544868,9.799116 94.065262,8.526305 94.967110,7.642954 
	C97.713608,4.952807 99.686111,5.405424 100.474899,9.119891 
	C100.974968,11.474701 100.637703,14.007322 100.111267,16.524460 
	C98.987320,12.723261 95.398468,12.420263 92.850044,10.893831 
z"/>
<path fill="#AEB0B4" opacity="1.000000" stroke="none" 
	d="
M118.139832,30.152000 
	C117.279457,28.927732 116.409607,27.655830 115.218124,25.857332 
	C114.244652,24.149544 113.592812,22.968353 112.940964,21.787159 
	C113.436203,21.244596 113.931427,20.702036 114.919693,20.371649 
	C117.556656,21.537481 119.596581,24.134424 121.999222,21.000694 
	C121.709702,22.467463 121.420181,23.934231 120.619232,25.790386 
	C119.757355,27.139854 119.406906,28.099937 119.056450,29.060020 
	C119.056450,29.060019 119.005608,29.001986 118.789169,29.093754 
	C118.395653,29.478752 118.218567,29.771984 118.041481,30.065214 
	C118.041481,30.065214 118.130371,30.104368 118.139832,30.152000 
z"/>
<path fill="#ADAEB0" opacity="1.000000" stroke="none" 
	d="
M92.597809,11.072693 
	C95.398468,12.420263 98.987320,12.723261 99.839935,16.820501 
	C100.092834,17.491072 100.052383,17.929855 99.587273,18.679447 
	C96.376419,17.284573 93.590225,15.578890 90.804039,13.873205 
	C91.317886,12.999321 91.831726,12.125437 92.597809,11.072693 
z"/>
<path fill="#A1A3A5" opacity="1.000000" stroke="none" 
	d="
M90.565346,14.047356 
	C93.590225,15.578890 96.376419,17.284573 99.525528,19.004398 
	C100.011223,19.720224 100.133987,20.421906 100.315475,21.474483 
	C96.634834,20.164412 92.895477,18.503443 89.093750,16.506151 
	C89.463135,15.520389 89.894897,14.870946 90.565346,14.047356 
z"/>
<path fill="#ADAEB0" opacity="1.000000" stroke="none" 
	d="
M77.131729,7.531342 
	C74.420494,8.857980 72.257812,8.538696 71.145264,5.094891 
	C71.930260,3.949084 72.987396,3.010036 74.044525,2.070989 
	C75.064125,3.766846 76.083717,5.462703 77.131729,7.531342 
z"/>
<path fill="#C6C6C7" opacity="1.000000" stroke="none" 
	d="
M122.016022,20.616972 
	C119.596581,24.134424 117.556656,21.537481 115.214615,20.322758 
	C119.178383,16.274942 120.849411,16.315802 122.016022,20.616972 
z"/>
<path fill="#A1A3A5" opacity="1.000000" stroke="none" 
	d="
M112.603798,21.882977 
	C113.592812,22.968353 114.244652,24.149544 114.947128,25.671455 
	C112.123299,29.749189 110.026421,27.995560 108.031982,24.715546 
	C109.397911,23.590075 110.832268,22.784433 112.603798,21.882977 
z"/>
<path fill="#92979C" opacity="1.000000" stroke="none" 
	d="
M119.327286,28.928440 
	C119.406906,28.099937 119.757355,27.139854 120.438522,26.130798 
	C120.378876,26.986837 119.988503,27.891850 119.327286,28.928440 
z"/>
<path fill="#92979C" opacity="1.000000" stroke="none" 
	d="
M118.349182,30.107502 
	C118.218567,29.771984 118.395653,29.478752 118.824722,29.108749 
	C118.936760,29.404583 118.796829,29.777185 118.349182,30.107502 
z"/>
<path fill="#A8A8A8" opacity="1.000000" stroke="none" 
	d="
M49.741966,131.356125 
	C46.718365,129.799225 43.694767,128.242310 40.294327,126.422562 
	C37.268650,124.099052 34.619808,122.038368 31.970970,119.977692 
	C31.695227,119.289360 31.419479,118.601036 31.138031,117.329529 
	C31.582493,115.772583 32.032658,114.798805 32.176579,114.487488 
	C43.268574,119.062042 54.125454,123.539627 64.991440,128.400543 
	C65.111153,132.251221 67.657074,131.969803 69.987961,132.261093 
	C69.989998,132.499649 69.997078,132.976715 69.671585,133.012238 
	C68.246651,133.665680 67.147209,134.283615 66.047775,134.901550 
	C64.607025,134.907852 63.166279,134.914154 60.987267,134.974243 
	C57.977886,135.028030 55.706779,135.028030 54.444324,135.028030 
	C52.478863,133.493271 51.110413,132.424698 49.741966,131.356125 
M57.488434,133.579819 
	C57.488434,133.579819 57.421867,133.475693 57.488434,133.579819 
z"/>
<path fill="#919393" opacity="1.000000" stroke="none" 
	d="
M64.982330,128.017212 
	C54.125454,123.539627 43.268574,119.062042 32.176579,114.487488 
	C32.032658,114.798805 31.582493,115.772583 31.009399,117.072037 
	C29.469194,115.667519 28.051922,113.937309 26.304119,111.671219 
	C23.572563,110.094162 21.191317,109.003487 18.762262,108.032402 
	C17.525663,107.538025 16.203112,107.258652 14.919415,106.882088 
	C16.043274,105.652840 17.167133,104.423592 18.864510,102.939163 
	C20.292995,102.116112 21.147964,101.548241 22.133125,101.303299 
	C23.516518,102.397888 24.769720,103.169563 26.215897,104.225807 
	C30.939411,106.671265 35.469948,108.832146 40.038082,111.344635 
	C42.384972,113.130013 44.694263,114.563789 47.335945,115.998863 
	C48.111103,116.007462 48.553867,116.014748 49.036285,116.374542 
	C51.253376,121.506477 55.486889,122.032066 60.200508,122.274796 
	C61.939850,123.035706 63.467747,123.523643 65.027069,124.296532 
	C65.045151,125.716820 65.031807,126.852165 65.009460,127.993950 
	C65.000443,128.000397 64.982330,128.017212 64.982330,128.017212 
z"/>
<path fill="#6D7375" opacity="1.000000" stroke="none" 
	d="
M40.000488,110.993027 
	C35.469948,108.832146 30.939411,106.671265 26.248295,103.876686 
	C25.784922,101.902161 25.482128,100.561333 25.179335,99.220505 
	C24.120533,99.807121 23.061731,100.393738 22.002934,100.980362 
	C21.147964,101.548241 20.292995,102.116112 19.169392,102.840622 
	C18.309660,100.256569 17.718559,97.515869 17.108877,94.061798 
	C18.596350,93.707329 20.102404,94.066238 21.939354,94.504005 
	C21.941023,94.501640 22.468943,93.754311 22.998430,93.003494 
	C23.000000,93.000000 22.995594,93.007088 23.028793,93.358711 
	C24.478394,96.415245 29.530573,99.438774 33.713245,100.074722 
	C36.555088,103.245094 39.119110,106.259163 41.754887,109.473038 
	C41.826641,109.672852 41.947147,110.081360 41.927399,110.333794 
	C41.271931,110.721825 40.636211,110.857430 40.000488,110.993027 
M30.586836,104.858849 
	C31.592209,104.858849 32.597584,104.858849 33.602955,104.858849 
	C33.497059,104.281876 33.391163,103.704910 33.285267,103.127937 
	C32.304173,103.503998 31.323076,103.880066 30.586836,104.858849 
z"/>
<path fill="#64686B" opacity="1.000000" stroke="none" 
	d="
M12.034129,72.373871 
	C13.710157,71.684814 15.015924,71.306320 16.332003,73.925789 
	C18.928864,79.094467 28.416649,81.342979 34.253109,78.542831 
	C37.804153,78.849480 40.917072,79.383080 44.445171,79.938095 
	C46.245014,79.942970 47.629677,79.926437 49.377380,79.946838 
	C50.858299,80.310837 51.976170,80.637886 53.050175,81.295685 
	C52.982307,81.847565 52.958305,82.068695 52.477165,82.203796 
	C45.691483,82.140625 39.362946,82.163475 32.619511,82.120766 
	C30.408989,82.712410 28.613363,83.369614 26.424591,84.021332 
	C22.078794,82.685471 18.126146,81.355103 14.173498,80.024734 
	C13.539273,77.582718 12.905046,75.140709 12.034129,72.373871 
z"/>
<path fill="#4D5659" opacity="1.000000" stroke="none" 
	d="
M14.101171,80.367493 
	C18.126146,81.355103 22.078794,82.685471 26.491886,84.323944 
	C27.258604,85.108093 27.564878,85.584137 27.982899,86.411095 
	C28.736460,88.842010 29.378275,90.922020 29.654049,93.002960 
	C27.190987,93.889694 25.091400,89.727898 22.995594,93.007088 
	C22.995594,93.007088 23.000000,93.000000 22.858509,92.675339 
	C21.462109,91.231163 20.326948,89.923965 18.927450,89.031082 
	C15.980220,87.150726 12.894427,85.487549 9.865499,83.735245 
	C11.253281,82.726913 12.641062,81.718575 14.101171,80.367493 
z"/>
<path fill="#C2C3C4" opacity="1.000000" stroke="none" 
	d="
M31.693993,120.193741 
	C34.619808,122.038368 37.268650,124.099052 39.989113,126.483017 
	C36.918091,130.336029 34.097904,134.473160 27.115059,132.735840 
	C28.569054,128.569824 29.993034,124.489815 31.693993,120.193741 
z"/>
<path fill="#CFCFD1" opacity="1.000000" stroke="none" 
	d="
M49.807423,131.746307 
	C51.110413,132.424698 52.478863,133.493271 54.444324,135.028030 
	C55.706779,135.028030 57.977886,135.028030 60.674709,135.093414 
	C59.422871,137.884705 58.000847,140.828110 55.950680,143.236877 
	C55.042828,144.303528 52.723820,144.888779 51.309521,144.559189 
	C50.317566,144.328018 49.191841,142.199539 49.146427,140.883133 
	C49.046257,137.979401 49.591171,135.053406 49.807423,131.746307 
z"/>
<path fill="#ADAEB0" opacity="1.000000" stroke="none" 
	d="
M14.579839,106.971802 
	C16.203112,107.258652 17.525663,107.538025 18.762262,108.032402 
	C21.191317,109.003487 23.572563,110.094162 26.006977,111.512680 
	C24.038120,112.577835 21.966690,113.114082 20.049868,113.989044 
	C17.180796,115.298660 13.827269,117.217606 11.692613,114.224297 
	C10.850224,113.043053 13.293248,109.518845 14.579839,106.971802 
z"/>
<path fill="#586062" opacity="1.000000" stroke="none" 
	d="
M9.520636,83.781746 
	C12.894427,85.487549 15.980220,87.150726 18.927450,89.031082 
	C20.326948,89.923965 21.462109,91.231163 22.856939,92.678833 
	C22.468943,93.754311 21.941023,94.501640 21.939354,94.504005 
	C20.102404,94.066238 18.596350,93.707329 17.041111,93.688263 
	C16.557014,93.966576 16.122103,93.905037 15.357084,93.405914 
	C11.531420,90.789734 8.035863,88.611137 4.540307,86.432541 
	C6.085464,85.564438 7.630619,84.696342 9.520636,83.781746 
z"/>
<path fill="#6D7375" opacity="1.000000" stroke="none" 
	d="
M4.557437,86.447647 
	C8.035863,88.611137 11.531420,90.789734 15.038317,93.321259 
	C12.117974,93.455772 9.164906,93.389320 6.260015,92.980522 
	C2.621887,92.468521 0.710279,90.820129 3.678198,87.113098 
	C4.282209,86.959084 4.431700,86.732872 4.581190,86.506653 
	C4.581191,86.506653 4.574568,86.462746 4.557437,86.447647 
M7.514653,89.403008 
	C7.514653,89.403008 7.582444,89.515587 7.514653,89.403008 
z"/>
<path fill="#9DA0A1" opacity="1.000000" stroke="none" 
	d="
M69.997078,132.976715 
	C69.997078,132.976715 69.989998,132.499649 70.287277,132.235565 
	C71.057373,131.652740 71.530190,131.334000 72.249435,131.013306 
	C72.495865,131.011322 72.988678,131.019485 73.030701,131.373886 
	C75.774277,134.306656 78.475830,136.885025 81.177383,139.463409 
	C81.176788,139.812363 81.176193,140.161301 81.125206,140.769012 
	C78.575615,139.828293 76.108879,138.548935 73.545433,137.507599 
	C73.115929,137.333130 72.267326,138.190353 71.361847,138.751923 
	C70.823326,138.186462 70.535339,137.439957 70.113564,136.028107 
	C69.985542,134.567413 69.991310,133.772064 69.997078,132.976715 
z"/>
<path fill="#92979C" opacity="1.000000" stroke="none" 
	d="
M69.671585,133.012238 
	C69.991310,133.772064 69.985542,134.567413 69.965805,135.761200 
	C68.854019,135.858566 67.756195,135.557510 66.353073,135.079010 
	C67.147209,134.283615 68.246651,133.665680 69.671585,133.012238 
z"/>
<path fill="#586062" opacity="1.000000" stroke="none" 
	d="
M4.380386,86.497574 
	C4.431700,86.732872 4.282209,86.959084 4.017099,86.982056 
	C3.901481,86.778801 4.179582,86.488495 4.380386,86.497574 
z"/>
<path fill="#586062" opacity="1.000000" stroke="none" 
	d="
M110.703049,125.197365 
	C109.586952,125.880119 108.541107,126.741997 107.341713,127.212341 
	C103.618454,128.672409 102.115051,131.221954 102.706604,135.526703 
	C100.508896,134.732803 98.720016,133.456512 96.798225,132.428741 
	C95.779076,131.883728 94.448746,131.937363 93.397942,131.431778 
	C89.712639,129.658585 86.085457,127.764320 82.447121,125.894783 
	C82.277634,125.807693 82.213402,125.515793 82.045029,125.223648 
	C83.091507,125.054916 84.034134,124.902931 84.754929,124.786713 
	C83.888939,123.958206 82.975143,123.083969 82.419266,122.144951 
	C83.489319,121.940521 84.201454,121.800880 85.249939,121.656898 
	C86.914421,121.363663 88.367729,121.319267 89.537262,120.720551 
	C90.836861,120.055237 91.877754,118.884552 93.165924,117.634430 
	C94.404892,116.835373 95.827034,115.623566 96.562042,115.951553 
	C101.393539,118.107620 106.093254,120.564911 110.767670,123.052284 
	C111.047409,123.201134 110.738213,124.456749 110.703049,125.197365 
z"/>
<path fill="#7A7F80" opacity="1.000000" stroke="none" 
	d="
M82.061348,122.209740 
	C82.975143,123.083969 83.888939,123.958206 84.754929,124.786713 
	C84.034134,124.902931 83.091507,125.054916 82.045029,125.223648 
	C82.213402,125.515793 82.277634,125.807693 82.447121,125.894783 
	C86.085457,127.764320 89.712639,129.658585 93.397942,131.431778 
	C94.448746,131.937363 95.779076,131.883728 96.798225,132.428741 
	C98.720016,133.456512 100.508896,134.732803 102.677933,135.953125 
	C103.096642,137.305756 103.453323,138.662079 103.212593,139.902466 
	C102.955902,141.225143 102.324226,143.323547 101.516266,143.496689 
	C100.226257,143.773117 98.653198,142.744003 97.206261,142.248077 
	C97.067474,142.200531 96.971329,142.022949 96.860069,141.901459 
	C92.895905,137.571884 88.614548,135.358627 83.351700,134.678711 
	C82.375275,133.521790 81.688423,132.755051 80.799332,131.713379 
	C75.396614,128.962830 70.196129,126.487198 64.995644,124.011581 
	C63.467747,123.523643 61.939850,123.035706 60.207806,121.998215 
	C60.008007,121.264267 60.012356,121.079880 60.349548,120.910004 
	C62.430721,120.952278 64.179054,120.980057 66.133133,121.343994 
	C71.579697,121.856689 76.820518,122.033218 82.061348,122.209740 
z"/>
<path fill="#DCDCDD" opacity="1.000000" stroke="none" 
	d="
M138.000000,84.999695 
	C140.322174,86.093636 142.644333,87.187569 144.975021,88.671509 
	C143.579849,89.660522 142.110855,90.888535 140.783676,90.750732 
	C134.720352,90.121162 134.112823,90.415039 131.959793,96.734406 
	C128.044510,95.368889 124.764297,93.802773 121.212105,92.106796 
	C120.402359,93.536896 119.702492,94.772926 118.763481,96.023888 
	C118.524338,96.038818 118.045143,96.043625 118.023994,95.665421 
	C116.704460,94.202110 115.406067,93.117004 114.207069,91.718521 
	C115.192520,89.928482 116.078583,88.451820 117.383308,86.983719 
	C119.759193,86.468681 121.716423,85.945076 123.673653,85.421478 
	C123.208412,84.322746 122.743179,83.224022 122.286148,81.807381 
	C121.845840,81.048988 121.397339,80.608513 120.962860,79.808746 
	C120.979912,78.970360 120.982933,78.491272 121.351700,78.045784 
	C127.144958,80.386162 132.572479,82.692932 138.000000,84.999695 
z"/>
<path fill="#6D7375" opacity="1.000000" stroke="none" 
	d="
M110.985504,125.415985 
	C110.738213,124.456749 111.047409,123.201134 110.767670,123.052284 
	C106.093254,120.564911 101.393539,118.107620 96.562042,115.951553 
	C95.827034,115.623566 94.404892,116.835373 92.891083,117.507553 
	C91.692696,116.784294 90.903793,115.888466 90.111130,114.624268 
	C89.336365,112.243103 88.565353,110.230309 88.103233,108.174835 
	C89.352394,108.327591 90.284592,108.617264 91.234634,108.698647 
	C93.146736,108.862434 95.068565,108.912743 96.994843,109.381569 
	C98.009048,110.488708 99.014793,111.224152 100.270554,111.966721 
	C100.687263,111.978294 100.853951,111.982750 101.057571,112.350037 
	C106.730721,115.476616 112.366951,118.240349 118.001587,121.002045 
	C118.000000,121.000000 117.995880,120.996811 118.051338,121.344925 
	C119.728584,122.463821 121.350372,123.234612 122.972160,124.005394 
	C123.068344,126.069969 123.164536,128.134552 123.260727,130.199127 
	C121.086121,129.713684 118.826431,129.454315 116.761627,128.677139 
	C114.823280,127.947563 113.090935,126.670670 110.985504,125.415985 
z"/>
<path fill="#BCBDBE" opacity="1.000000" stroke="none" 
	d="
M118.045143,96.043625 
	C118.045143,96.043625 118.524338,96.038818 119.049179,96.230545 
	C123.633820,98.577011 127.693611,100.731758 131.726639,102.872299 
	C132.072189,102.359520 132.511917,101.706985 132.951645,101.054459 
	C136.216919,104.191597 141.136337,106.372925 139.647827,112.663658 
	C135.136688,111.987663 130.831787,111.342575 126.235306,110.103157 
	C122.286713,107.327667 118.629723,105.146507 115.010544,102.625511 
	C116.042297,100.532913 117.036240,98.780144 118.039108,96.775696 
	C118.045372,96.356148 118.042694,96.188271 118.030815,96.017799 
	C118.021622,96.015205 118.045143,96.043625 118.045143,96.043625 
z"/>
<path fill="#7F8488" opacity="1.000000" stroke="none" 
	d="
M122.947159,123.648926 
	C121.350372,123.234612 119.728584,122.463821 118.188904,121.293777 
	C118.181740,120.931038 118.092461,120.967567 118.003181,121.004089 
	C112.366951,118.240349 106.730721,115.476616 101.337074,112.333267 
	C101.765778,111.937286 101.951904,111.920914 102.497742,111.918076 
	C105.552803,111.576317 108.248169,111.221039 111.263916,111.025482 
	C114.971611,111.553040 116.991470,116.280373 121.151093,114.186050 
	C121.741447,117.221519 122.331802,120.256981 122.947159,123.648926 
z"/>
<path fill="#A1A3A5" opacity="1.000000" stroke="none" 
	d="
M121.137756,114.143356 
	C116.991470,116.280373 114.971611,111.553040 111.269943,110.737411 
	C110.972694,109.901924 110.989807,109.514252 111.005768,108.839005 
	C111.004684,108.359718 111.004776,108.168007 111.006485,107.991241 
	C111.008102,108.006187 110.978577,108.011902 111.197243,107.900513 
	C111.678108,107.581085 111.872246,107.322052 112.013733,106.707657 
	C112.361404,105.678848 112.693687,104.954407 113.316292,104.143921 
	C114.061989,103.693695 114.517365,103.329521 114.972733,102.965347 
	C118.629723,105.146507 122.286713,107.327667 125.962799,109.817619 
	C125.040466,110.904732 124.099022,111.683037 122.707573,112.768066 
	C121.850029,113.416374 121.442497,113.757957 121.034966,114.099541 
	C121.034966,114.099541 121.124413,114.100670 121.137756,114.143356 
z"/>
<path fill="#CFCFD1" opacity="1.000000" stroke="none" 
	d="
M132.837036,100.721558 
	C132.511917,101.706985 132.072189,102.359520 131.726639,102.872299 
	C127.693611,100.731758 123.633820,98.577011 119.288322,96.215607 
	C119.702492,94.772926 120.402359,93.536896 121.212105,92.106796 
	C124.764297,93.802773 128.044510,95.368889 131.690063,96.972771 
	C132.277740,98.136581 132.500076,99.262627 132.837036,100.721558 
z"/>
<path fill="#92979C" opacity="1.000000" stroke="none" 
	d="
M81.001564,131.988327 
	C81.688423,132.755051 82.375275,133.521790 83.040527,134.598160 
	C82.572357,136.244980 82.125809,137.582169 81.428322,139.191376 
	C78.475830,136.885025 75.774277,134.306656 73.407669,131.372772 
	C76.162270,131.340958 78.581917,131.664642 81.001564,131.988327 
z"/>
<path fill="#7F8488" opacity="1.000000" stroke="none" 
	d="
M121.302246,114.339905 
	C121.442497,113.757957 121.850029,113.416374 122.548676,113.067078 
	C122.416359,113.566330 121.992943,114.073303 121.302246,114.339905 
z"/>
<path fill="#D8D8D8" opacity="1.000000" stroke="none" 
	d="
M10.936436,39.954399 
	C10.956562,39.520164 10.976687,39.085926 10.998342,38.325615 
	C12.386593,38.002041 13.773316,38.004536 15.775512,38.340118 
	C19.251669,39.158367 22.112352,39.643532 24.992397,40.512440 
	C27.630478,44.456039 31.147598,44.287865 34.933201,43.422955 
	C36.522091,43.059937 38.205292,43.109680 39.889214,43.204002 
	C39.932808,43.436230 39.996307,43.904514 39.658985,43.937698 
	C38.199593,45.217743 37.077522,46.464600 35.657974,47.856182 
	C34.331787,49.380573 33.303082,50.760235 31.937920,51.981316 
	C29.703857,51.047127 27.810926,50.259743 25.905685,49.503368 
	C25.362844,49.287865 24.700253,49.287811 24.235088,48.976212 
	C19.784725,45.995033 15.364971,42.968163 10.936436,39.954399 
z"/>
<path fill="#CFCFD1" opacity="1.000000" stroke="none" 
	d="
M29.881184,33.077545 
	C29.410990,32.800743 28.940796,32.523937 28.292358,31.863270 
	C27.337513,29.364166 26.560913,27.248930 26.130859,25.064220 
	C29.331585,22.618969 31.552561,23.298594 33.795059,26.091595 
	C35.376446,28.061193 37.551231,29.771164 38.352249,25.127277 
	C39.490768,25.093248 40.250641,25.091730 40.954208,25.405624 
	C40.402164,26.512278 39.906425,27.303516 39.856026,27.383959 
	C41.776718,29.481562 43.385746,31.238796 44.776443,33.103500 
	C44.285286,33.409897 44.101170,33.671307 43.636597,33.958202 
	C41.364422,33.062820 39.510395,31.684963 37.543941,31.499569 
	C35.758453,31.331238 33.850613,32.460670 31.644394,33.011139 
	C30.821779,33.028717 30.351480,33.053131 29.881184,33.077545 
z"/>
<path fill="#E0E0E0" opacity="1.000000" stroke="none" 
	d="
M29.781261,33.370750 
	C30.351480,33.053131 30.821779,33.028717 31.646181,33.398510 
	C31.988991,39.894680 37.483627,39.187183 40.853104,41.284546 
	C40.466053,42.028008 40.155834,42.499889 39.845615,42.971775 
	C38.205292,43.109680 36.522091,43.059937 34.933201,43.422955 
	C31.147598,44.287865 27.630478,44.456039 25.270912,40.332169 
	C26.011765,38.844353 26.493465,37.920555 26.975170,36.996758 
	C27.877228,35.885826 28.779284,34.774895 29.781261,33.370750 
z"/>
<path fill="#FCFCFC" opacity="1.000000" stroke="none" 
	d="
M41.010513,25.090212 
	C40.250641,25.091730 39.490768,25.093248 38.097206,24.947540 
	C36.918198,23.986341 36.372879,23.172371 35.827557,22.358402 
	C39.137527,19.895391 42.447498,17.432383 46.105637,14.926577 
	C46.608101,15.659700 46.762394,16.435619 46.944180,17.987358 
	C46.943653,19.789120 46.915630,20.815065 46.546196,21.888819 
	C44.473362,22.987823 42.741936,24.039017 41.010513,25.090212 
z"/>
<path fill="#C8C9CA" opacity="1.000000" stroke="none" 
	d="
M35.514812,22.272530 
	C36.372879,23.172371 36.918198,23.986341 37.718559,24.980049 
	C37.551231,29.771164 35.376446,28.061193 33.795059,26.091595 
	C31.552561,23.298594 29.331585,22.618969 25.929672,25.028484 
	C25.381943,25.062220 24.973928,25.007887 24.973928,25.007887 
	C25.279310,23.547585 25.584692,22.087282 26.268490,20.274952 
	C27.098660,19.891232 27.550411,19.859539 28.002163,19.827848 
	C28.168789,19.839535 28.335413,19.851219 29.093044,19.912495 
	C30.781336,20.329159 31.878614,20.696232 32.975895,21.063305 
	C33.717953,21.437756 34.460011,21.812206 35.514812,22.272530 
z"/>
<path fill="#FCFCFC" opacity="1.000000" stroke="none" 
	d="
M24.617943,25.068035 
	C24.973928,25.007887 25.381943,25.062220 25.583128,25.097956 
	C26.560913,27.248930 27.337513,29.364166 28.032084,31.777357 
	C26.249615,31.905813 24.549175,31.736317 22.848738,31.566820 
	C23.319811,29.420609 23.790884,27.274397 24.617943,25.068035 
z"/>
<path fill="#FCFCFC" opacity="1.000000" stroke="none" 
	d="
M26.524597,36.997993 
	C26.493465,37.920555 26.011765,38.844353 25.251549,39.948425 
	C22.112352,39.643532 19.251669,39.158367 16.190838,38.345642 
	C19.351803,37.678467 22.712915,37.338848 26.524597,36.997993 
z"/>
<path fill="#FCFCFC" opacity="1.000000" stroke="none" 
	d="
M32.948929,20.708614 
	C31.878614,20.696232 30.781336,20.329159 29.341835,19.882847 
	C30.772631,16.668718 31.913307,18.040825 32.948929,20.708614 
z"/>
<path fill="#FCFCFC" opacity="1.000000" stroke="none" 
	d="
M27.954063,19.550209 
	C27.550411,19.859539 27.098660,19.891232 26.307091,19.899803 
	C26.613504,19.675314 27.259733,19.473942 27.954063,19.550209 
z"/>
<path fill="#969B9D" opacity="1.000000" stroke="none" 
	d="
M49.014339,79.909897 
	C47.629677,79.926437 46.245014,79.942970 44.382172,79.572266 
	C41.905407,78.093300 39.983627,76.816444 37.892113,75.948708 
	C33.641151,74.185074 29.298496,72.642464 24.993631,71.008766 
	C24.993631,71.008766 24.999498,71.000000 25.146687,70.758881 
	C25.312778,69.994102 25.461868,69.048546 25.331583,69.008347 
	C21.903715,67.950569 18.446947,66.986427 14.995129,66.006256 
	C13.660342,64.600021 12.325554,63.193787 10.990846,61.412636 
	C12.420281,60.725410 13.849638,60.413101 15.880333,60.347256 
	C19.417452,61.839115 22.295198,63.270115 25.324247,64.217232 
	C26.237516,64.502792 27.570995,63.444450 29.095524,62.893341 
	C30.976583,62.519699 32.474102,62.254433 33.981850,62.379845 
	C32.604939,64.952049 31.217796,67.133583 29.613729,69.656265 
	C31.796301,69.656265 34.870403,69.656265 38.047672,69.957191 
	C42.433640,72.506134 46.716438,74.754143 50.827057,77.258179 
	C50.108032,78.312767 49.561188,79.111328 49.014339,79.909897 
z"/>
<path fill="#C6C6C7" opacity="1.000000" stroke="none" 
	d="
M10.901949,40.176170 
	C15.364971,42.968163 19.784725,45.995033 24.235088,48.976212 
	C24.700253,49.287811 25.362844,49.287865 25.905685,49.503368 
	C27.810926,50.259743 29.703857,51.047127 31.855923,52.358822 
	C32.010921,54.174438 31.911461,55.453968 31.820194,56.772541 
	C31.828390,56.811581 31.886940,56.867111 31.541285,56.806633 
	C30.708893,57.474590 30.222157,58.203022 29.556679,58.940502 
	C29.377935,58.949551 29.026613,59.018059 28.672138,58.972183 
	C26.444801,57.519478 24.571943,56.112648 22.957195,54.899704 
	C21.020206,55.610390 19.064394,56.327980 17.108580,57.045570 
	C19.453461,51.047607 13.799191,49.154510 11.253502,45.111816 
	C11.102551,43.324127 10.963961,42.084480 10.825371,40.844833 
	C10.825372,40.844833 10.867464,40.397942 10.901949,40.176170 
z"/>
<path fill="#ADAEB0" opacity="1.000000" stroke="none" 
	d="
M17.023193,57.355747 
	C19.064394,56.327980 21.020206,55.610390 22.957195,54.899704 
	C24.571943,56.112648 26.444801,57.519478 28.665009,59.371410 
	C28.912233,60.878250 28.812109,61.939983 28.711985,63.001720 
	C27.570995,63.444450 26.237516,64.502792 25.324247,64.217232 
	C22.295198,63.270115 19.417452,61.839115 16.252312,60.329632 
	C16.327902,59.265671 16.632854,58.465797 17.023193,57.355747 
z"/>
<path fill="#D8D8D8" opacity="1.000000" stroke="none" 
	d="
M10.530804,40.926582 
	C10.963961,42.084480 11.102551,43.324127 11.085417,44.807426 
	C10.698541,43.703495 10.467389,42.355915 10.530804,40.926582 
z"/>
<path fill="#888E8E" opacity="1.000000" stroke="none" 
	d="
M24.999554,71.371704 
	C29.298496,72.642464 33.641151,74.185074 37.892113,75.948708 
	C39.983627,76.816444 41.905407,78.093300 43.966995,79.550850 
	C40.917072,79.383080 37.804153,78.849480 34.345657,78.158157 
	C31.339779,75.426781 26.598980,75.839691 24.999554,71.371704 
z"/>
<path fill="#888E8E" opacity="1.000000" stroke="none" 
	d="
M14.993254,66.341003 
	C18.446947,66.986427 21.903715,67.950569 25.331583,69.008347 
	C25.461868,69.048546 25.312778,69.994102 25.141344,70.761826 
	C21.644680,70.431793 18.300547,69.857719 14.754131,69.248917 
	C14.816923,68.567879 14.904151,67.621819 14.993254,66.341003 
z"/>
<path fill="#D8D8D8" opacity="1.000000" stroke="none" 
	d="
M137.989349,84.619392 
	C132.572479,82.692932 127.144958,80.386162 120.953026,78.046417 
	C119.124069,78.014191 118.059517,78.014931 116.942963,77.665192 
	C114.789688,76.122246 112.503159,75.159897 110.645844,73.664459 
	C109.162453,72.470093 108.201683,70.626625 107.437630,69.048676 
	C109.583984,69.049561 111.301666,69.073051 113.075027,69.430740 
	C114.094131,70.173820 115.057556,70.582703 116.261169,70.991241 
	C116.501373,70.990906 116.981781,70.993202 116.981781,70.993202 
	C121.654648,73.663979 126.390060,76.232826 130.975235,79.046501 
	C133.442703,80.560638 135.652588,82.494568 137.989349,84.619392 
M116.581718,72.516685 
	C116.581718,72.516685 116.478218,72.576721 116.581718,72.516685 
z"/>
<path fill="#C6C6C7" opacity="1.000000" stroke="none" 
	d="
M135.772171,75.945190 
	C132.933426,74.478279 130.150818,72.883972 127.232422,71.597763 
	C125.755302,70.946770 124.032822,70.852501 122.219772,69.929810 
	C122.009369,68.908676 122.000473,68.464256 122.225525,67.852844 
	C122.616966,67.151199 122.774460,66.616547 122.950775,65.766159 
	C123.190323,64.919090 123.546860,63.906818 123.612328,63.925304 
	C127.110916,64.913231 130.584976,65.988045 134.177643,67.346634 
	C134.798981,68.741226 135.304245,69.843048 135.833298,71.362068 
	C135.828766,73.167915 135.800476,74.556549 135.772171,75.945190 
z"/>
<path fill="#FCFCFC" opacity="1.000000" stroke="none" 
	d="
M135.883759,76.296738 
	C135.800476,74.556549 135.828766,73.167915 136.106354,71.234314 
	C136.351028,69.579239 136.346405,68.469131 136.592560,67.499680 
	C138.559814,67.419586 140.276291,67.198830 141.992767,66.978081 
	C144.086960,71.196320 142.222092,74.812630 140.105438,78.744690 
	C138.636246,78.266846 137.315796,77.457565 135.883759,76.296738 
z"/>
<path fill="#DBDBDC" opacity="1.000000" stroke="none" 
	d="
M121.991570,68.019844 
	C122.000473,68.464256 122.009369,68.908676 122.020035,69.686874 
	C120.512085,70.161018 119.002357,70.301369 117.237213,70.717461 
	C116.981781,70.993202 116.501373,70.990906 116.154007,70.744125 
	C115.538193,70.034599 115.269730,69.571846 115.336884,69.047363 
	C116.187904,68.579147 116.703308,68.172646 117.612869,67.797379 
	C119.335220,67.892349 120.663391,67.956093 121.991570,68.019844 
z"/>
<path fill="#B9BABF" opacity="1.000000" stroke="none" 
	d="
M142.012131,66.783112 
	C140.276291,67.198830 138.559814,67.419586 136.217941,67.386093 
	C135.082214,67.105843 134.571899,67.079849 134.061569,67.053864 
	C130.584976,65.988045 127.110916,64.913231 123.612328,63.925304 
	C123.546860,63.906818 123.190323,64.919090 122.617096,65.686005 
	C121.922760,65.144470 121.695717,64.284973 121.211418,63.610077 
	C120.531822,62.663006 119.660957,61.853199 119.042953,60.719101 
	C119.404488,58.978287 119.594971,57.503052 119.785446,56.027817 
	C123.137848,57.060570 126.615166,57.809628 129.804047,59.213757 
	C132.466187,60.385956 134.736816,62.418571 137.285995,63.887684 
	C138.652542,64.675255 140.240829,65.078033 141.913528,65.928207 
	C142.097992,66.201958 142.031494,66.588135 142.012131,66.783112 
z"/>
<path fill="#A3A6AA" opacity="1.000000" stroke="none" 
	d="
M89.000732,26.007166 
	C91.077339,26.884922 93.153938,27.762678 95.512779,28.759731 
	C95.407784,29.706627 95.275948,30.895649 95.192810,31.645401 
	C97.802635,32.484806 100.040756,33.204659 102.524323,34.239418 
	C102.877510,36.456570 102.985260,38.358818 103.046906,40.577789 
	C102.062202,41.992794 101.123596,43.091064 99.872162,44.017761 
	C97.019455,41.217537 94.479591,38.588894 91.996643,35.612312 
	C94.881393,30.324594 88.708450,31.818289 87.947655,29.104015 
	C88.322792,27.828146 88.661758,26.917656 89.000732,26.007166 
z"/>
<path fill="#9DA0A1" opacity="1.000000" stroke="none" 
	d="
M103.093010,40.261063 
	C102.985260,38.358818 102.877510,36.456570 102.886475,34.272556 
	C106.187752,35.145603 109.372299,36.300419 112.777695,37.724667 
	C112.184601,38.669182 111.370651,39.344261 109.835419,40.046280 
	C108.156662,40.057781 107.199211,40.042347 105.818771,40.023457 
	C104.840508,40.095161 104.285217,40.170322 103.570847,40.255272 
	C103.411758,40.265064 103.093010,40.261063 103.093010,40.261063 
z"/>
<path fill="#969B9D" opacity="1.000000" stroke="none" 
	d="
M81.848465,22.694305 
	C80.698830,23.010853 79.144157,23.485706 78.145164,22.941162 
	C75.345528,21.415096 72.775291,19.468182 70.063148,17.342087 
	C74.925842,16.584742 78.363892,19.372351 81.848465,22.694305 
z"/>
<path fill="#969B9D" opacity="1.000000" stroke="none" 
	d="
M88.935173,25.648872 
	C88.661758,26.917656 88.322792,27.828146 87.588776,29.013737 
	C86.476830,29.120790 85.759933,28.952745 85.043037,28.784698 
	C85.031960,28.387846 85.020889,27.990995 85.005219,27.296385 
	C85.001038,26.248909 85.001457,25.499193 85.002625,24.374584 
	C86.292114,24.429991 87.580864,24.860287 88.935173,25.648872 
z"/>
<path fill="#727977" opacity="1.000000" stroke="none" 
	d="
M119.554504,55.820866 
	C119.594971,57.503052 119.404488,58.978287 118.695168,60.709435 
	C117.717125,61.029488 117.257919,61.093624 116.433975,61.143646 
	C114.714172,57.752403 113.359100,54.375278 112.407021,50.987881 
	C114.135139,51.057396 115.460266,51.137192 116.785393,51.216984 
	C117.631447,52.682629 118.477493,54.148270 119.554504,55.820866 
z"/>
<path fill="#969B9D" opacity="1.000000" stroke="none" 
	d="
M116.814087,50.850166 
	C115.460266,51.137192 114.135139,51.057396 112.397110,51.067009 
	C111.984207,51.156410 111.825104,51.167774 111.825493,50.955334 
	C111.551666,50.833767 111.277451,50.924637 110.661331,51.023552 
	C109.112419,49.378860 107.905418,47.726120 107.059937,46.033817 
	C108.312843,45.648918 109.204247,45.303577 110.417114,44.985260 
	C111.166199,45.004711 111.593826,44.997147 112.021446,44.989578 
	C112.021446,44.989578 112.000519,45.001820 111.982010,45.301571 
	C112.316345,46.068478 112.669182,46.535633 113.022018,47.002789 
	C113.022018,47.002789 112.996246,47.001827 112.999092,47.294365 
	C113.326057,48.055645 113.650177,48.524387 113.974297,48.993130 
	C114.930458,49.489868 115.886612,49.986610 116.814087,50.850166 
z"/>
<path fill="#6D7375" opacity="1.000000" stroke="none" 
	d="
M114.012466,48.749481 
	C113.650177,48.524387 113.326057,48.055645 113.004677,47.282722 
	C113.303558,47.167198 113.599709,47.355850 114.029221,47.784981 
	C114.162590,48.025455 114.050636,48.505829 114.012466,48.749481 
z"/>
<path fill="#B9BABF" opacity="1.000000" stroke="none" 
	d="
M142.450577,63.535126 
	C142.417221,63.479263 142.483932,63.590984 142.450577,63.535126 
z"/>
<path fill="#6D7375" opacity="1.000000" stroke="none" 
	d="
M111.990707,44.646961 
	C111.593826,44.997147 111.166199,45.004711 110.276321,44.687561 
	C108.635185,43.226658 107.456299,42.090477 106.247589,40.723255 
	C106.217758,40.492214 106.241753,40.026913 106.241753,40.026913 
	C107.199211,40.042347 108.156662,40.057781 109.468048,40.068737 
	C110.534637,41.477619 111.247307,42.890984 111.990707,44.646961 
z"/>
<path fill="#6D7375" opacity="1.000000" stroke="none" 
	d="
M113.046234,46.690823 
	C112.669182,46.535633 112.316345,46.068478 111.986580,45.290695 
	C112.363258,45.446327 112.716850,45.912590 113.046234,46.690823 
z"/>
<path fill="#D9D9DC" opacity="1.000000" stroke="none" 
	d="
M84.625122,28.864458 
	C85.759933,28.952745 86.476830,29.120790 87.552612,29.379116 
	C88.708450,31.818289 94.881393,30.324594 91.766258,35.732582 
	C91.052475,36.500271 90.625999,36.799759 90.006134,36.772621 
	C80.198341,30.266785 70.340065,33.273281 60.364803,35.342434 
	C60.613819,37.118217 60.815655,38.557571 60.687683,39.997620 
	C59.918880,39.999130 59.479885,39.999939 58.987438,39.617340 
	C58.289314,35.819141 57.644650,32.404358 57.310402,29.035427 
	C59.262398,30.644077 66.233177,29.938692 68.034195,28.027538 
	C70.113007,27.999046 72.191811,27.970556 74.648026,27.902252 
	C78.086021,28.223034 81.146606,28.583626 84.625122,28.864458 
z"/>
<path fill="#B4B6BB" opacity="1.000000" stroke="none" 
	d="
M67.718094,27.883579 
	C66.233177,29.938692 59.262398,30.644077 57.246017,28.674915 
	C55.141708,27.526917 53.270458,27.001717 51.720181,25.986418 
	C49.959530,24.833342 48.485973,23.241890 46.887611,21.841009 
	C46.915630,20.815065 46.943653,19.789120 47.002907,18.379236 
	C50.123802,19.588940 53.175972,21.261263 56.312904,22.755672 
	C59.970589,24.498169 63.702362,26.085154 67.718094,27.883579 
z"/>
<path fill="#919393" opacity="1.000000" stroke="none" 
	d="
M72.003006,131.015274 
	C71.530190,131.334000 71.057373,131.652740 70.285240,131.997009 
	C67.657074,131.969803 65.111153,132.251221 64.991440,128.400543 
	C64.982330,128.017212 65.000443,128.000397 65.338875,127.996887 
	C67.785873,129.000687 69.894440,130.007980 72.003006,131.015274 
z"/>
<path fill="#CFCFD1" opacity="1.000000" stroke="none" 
	d="
M57.455151,133.527756 
	C57.421867,133.475693 57.488434,133.579819 57.455151,133.527756 
z"/>
<path fill="#888E8E" opacity="1.000000" stroke="none" 
	d="
M72.249435,131.013306 
	C69.894440,130.007980 67.785873,129.000687 65.347885,127.990448 
	C65.031807,126.852165 65.045151,125.716820 65.027069,124.296524 
	C70.196129,126.487198 75.396614,128.962830 80.799332,131.713379 
	C78.581917,131.664642 76.162270,131.340958 73.365646,131.018372 
	C72.988678,131.019485 72.495865,131.011322 72.249435,131.013306 
z"/>
<path fill="#7C8384" opacity="1.000000" stroke="none" 
	d="
M48.996635,116.022041 
	C48.553867,116.014748 48.111103,116.007462 47.333820,115.591225 
	C46.980755,114.095177 46.962208,113.008080 47.116634,111.900078 
	C47.289612,111.879181 47.637127,111.880287 47.950958,111.985672 
	C50.802132,112.748741 53.339474,113.406441 56.038109,114.319748 
	C56.529442,114.805122 56.859474,115.034889 57.159813,115.634949 
	C57.104145,116.992912 57.078178,117.980583 56.690300,118.946709 
	C53.884472,117.957458 51.440556,116.989754 48.996635,116.022041 
z"/>
<path fill="#8E9091" opacity="1.000000" stroke="none" 
	d="
M49.036285,116.374542 
	C51.440556,116.989754 53.884472,117.957458 56.670387,118.953979 
	C57.012383,118.982788 57.020695,118.948944 57.025379,119.198959 
	C57.147896,119.733009 57.265728,120.017036 57.383560,120.301064 
	C57.571030,119.920624 57.758495,119.540192 58.269592,119.140518 
	C59.067715,119.712692 59.542210,120.304092 60.016708,120.895493 
	C60.012356,121.079880 60.008007,121.264267 59.996353,121.725243 
	C55.486889,122.032066 51.253376,121.506477 49.036285,116.374542 
z"/>
<path fill="#8E9091" opacity="1.000000" stroke="none" 
	d="
M46.943657,111.920975 
	C46.962208,113.008080 46.980755,114.095177 47.001431,115.589920 
	C44.694263,114.563789 42.384972,113.130013 40.038086,111.344635 
	C40.636211,110.857430 41.271931,110.721825 42.179771,110.399704 
	C42.637764,110.496445 42.823643,110.779701 43.204685,111.281746 
	C43.951675,111.663742 44.503502,111.826942 45.026085,111.997055 
	C44.996838,112.003975 44.996098,111.943878 45.066086,112.116356 
	C45.397839,112.215912 45.659611,112.142990 46.176453,112.029404 
	C46.602242,111.966148 46.772949,111.943565 46.943657,111.920975 
z"/>
<path fill="#727977" opacity="1.000000" stroke="none" 
	d="
M22.133121,101.303291 
	C23.061731,100.393738 24.120533,99.807121 25.179335,99.220505 
	C25.482128,100.561333 25.784922,101.902161 26.055317,103.592110 
	C24.769720,103.169563 23.516518,102.397888 22.133121,101.303291 
z"/>
<path fill="#C8C9CA" opacity="1.000000" stroke="none" 
	d="
M41.683132,109.273224 
	C39.119110,106.259163 36.555088,103.245094 33.597370,99.765053 
	C33.127972,98.868813 33.052273,98.438545 33.202477,97.902130 
	C33.710983,97.595947 33.904015,97.330719 34.409210,96.998619 
	C35.619228,96.954155 36.427509,96.911354 37.576126,96.954826 
	C38.945213,99.352699 39.973965,101.664299 41.010773,104.347733 
	C41.345432,106.146790 41.672028,107.574005 41.920738,109.070358 
	C41.842850,109.139503 41.683132,109.273224 41.683132,109.273224 
z"/>
<path fill="#586062" opacity="1.000000" stroke="none" 
	d="
M32.976570,98.008286 
	C33.052273,98.438545 33.127972,98.868813 33.319546,99.608749 
	C29.530573,99.438774 24.478394,96.415245 23.028793,93.358711 
	C25.091400,89.727898 27.190987,93.889694 29.845119,93.260315 
	C31.155529,94.763023 31.908829,96.009293 32.675217,97.238014 
	C32.688301,97.220459 32.730003,97.224251 32.746048,97.434601 
	C32.762089,97.644951 32.976574,98.008286 32.976570,98.008286 
z"/>
<path fill="#727977" opacity="1.000000" stroke="none" 
	d="
M30.464409,104.557487 
	C31.323076,103.880066 32.304173,103.503998 33.285267,103.127937 
	C33.391163,103.704910 33.497059,104.281876 33.602955,104.858849 
	C32.597584,104.858849 31.592209,104.858849 30.464409,104.557487 
z"/>
<path fill="#C8C9CA" opacity="1.000000" stroke="none" 
	d="
M43.009521,111.062958 
	C42.823643,110.779701 42.637764,110.496445 42.199516,110.147270 
	C41.947147,110.081360 41.826641,109.672852 41.754887,109.473038 
	C41.683132,109.273224 41.842850,109.139503 42.232456,109.105835 
	C43.071308,109.685226 43.520554,110.298271 43.735733,110.987228 
	C43.501663,111.063141 43.009525,111.062958 43.009521,111.062958 
z"/>
<path fill="#FBFBFB" opacity="1.000000" stroke="none" 
	d="
M41.002716,103.975899 
	C39.973965,101.664299 38.945213,99.352699 37.522446,96.598587 
	C36.413036,94.443115 35.697639,92.730148 34.987488,90.640625 
	C34.328487,89.175842 33.664242,88.087616 33.003754,86.751923 
	C33.007507,86.504456 32.987144,86.009888 32.993195,85.627472 
	C33.010963,84.225479 33.022686,83.205902 33.034405,82.186325 
	C39.362946,82.163475 45.691483,82.140625 52.477959,82.545792 
	C54.481804,85.346603 56.027718,87.719391 57.642185,90.471542 
	C57.760502,91.866516 57.810272,92.882118 57.589531,94.105202 
	C55.567482,97.666222 53.815941,101.019768 51.749405,104.341309 
	C50.644325,105.569687 49.854229,106.830078 48.724895,107.994797 
	C45.924675,106.591385 43.463696,105.283638 41.002716,103.975899 
z"/>
<path fill="#8E9091" opacity="1.000000" stroke="none" 
	d="
M57.573631,90.092178 
	C56.027718,87.719391 54.481804,85.346603 52.935097,82.631821 
	C52.958305,82.068695 52.982307,81.847565 53.390694,81.345322 
	C54.591011,81.612053 55.356403,82.263420 56.231285,82.690491 
	C60.948189,84.993034 64.826843,89.622917 70.976509,88.421768 
	C74.330399,90.527084 77.660889,92.267891 81.028961,94.365326 
	C81.360634,95.871956 81.654732,97.021950 81.548325,98.110245 
	C78.420975,97.975494 75.694107,97.902458 72.927826,97.490204 
	C70.012901,94.648170 67.645905,91.047485 62.898422,92.576645 
	C62.676449,92.648140 62.302666,92.106476 61.954422,91.952515 
	C60.503574,91.311104 59.035431,90.708817 57.573631,90.092178 
z"/>
<path fill="#9DA0A1" opacity="1.000000" stroke="none" 
	d="
M70.953102,88.057266 
	C64.826843,89.622917 60.948189,84.993034 56.231285,82.690491 
	C55.356403,82.263420 54.591011,81.612053 53.434563,81.014572 
	C51.976170,80.637886 50.858299,80.310837 49.377380,79.946838 
	C49.561188,79.111328 50.108032,78.312767 50.828228,77.004379 
	C51.001579,76.325371 51.001579,76.156189 51.334412,75.990219 
	C52.111061,75.996788 52.554874,76.000153 53.040977,76.324341 
	C53.726429,77.093605 54.369591,77.542046 55.386200,77.995430 
	C58.154724,79.000854 60.549801,80.001343 63.102570,81.316109 
	C66.224304,83.728714 69.188354,85.827034 71.852524,87.957855 
	C71.352791,88.012657 71.152946,88.034966 70.953102,88.057266 
z"/>
<path fill="#E4E5E7" opacity="1.000000" stroke="none" 
	d="
M32.619511,82.120773 
	C33.022686,83.205902 33.010963,84.225479 32.567482,85.626541 
	C30.714197,86.025414 29.292673,86.042801 27.871151,86.060181 
	C27.564878,85.584137 27.258604,85.108093 26.885033,84.329437 
	C28.613363,83.369614 30.408989,82.712410 32.619511,82.120773 
z"/>
<path fill="#D5D6D7" opacity="1.000000" stroke="none" 
	d="
M27.982899,86.411095 
	C29.292673,86.042801 30.714197,86.025414 32.561432,86.008957 
	C32.987144,86.009888 33.007507,86.504456 32.731560,86.772400 
	C32.970085,88.375481 33.484554,89.710617 33.836998,91.404816 
	C33.337360,93.594444 32.999744,95.425003 32.662128,97.255569 
	C31.908829,96.009293 31.155529,94.763023 30.211161,93.259384 
	C29.378275,90.922020 28.736460,88.842010 27.982899,86.411095 
z"/>
<path fill="#586062" opacity="1.000000" stroke="none" 
	d="
M7.548549,89.459297 
	C7.582444,89.515587 7.514653,89.403008 7.548549,89.459297 
z"/>
<path fill="#C2C3C4" opacity="1.000000" stroke="none" 
	d="
M90.114891,114.992645 
	C90.903793,115.888466 91.692696,116.784294 92.756439,117.807007 
	C91.877754,118.884552 90.836861,120.055237 89.537262,120.720551 
	C88.367729,121.319267 86.914421,121.363663 85.174744,121.314026 
	C79.831657,120.927299 74.900101,120.879105 70.034309,120.523132 
	C71.056679,119.231186 72.013283,118.247017 73.418976,117.184212 
	C79.283676,116.401260 84.699280,115.696953 90.114891,114.992645 
z"/>
<path fill="#E0E0E0" opacity="1.000000" stroke="none" 
	d="
M69.968544,120.830910 
	C74.900101,120.879105 79.831657,120.927299 84.838409,121.318359 
	C84.201454,121.800880 83.489319,121.940521 82.419266,122.144951 
	C76.820518,122.033218 71.579697,121.856689 66.537781,121.321243 
	C67.813980,120.918510 68.891258,120.874710 69.968544,120.830910 
z"/>
<path fill="#B9BABF" opacity="1.000000" stroke="none" 
	d="
M70.034309,120.523132 
	C68.891258,120.874710 67.813980,120.918510 66.332047,120.985077 
	C64.179054,120.980057 62.430721,120.952278 60.349548,120.910004 
	C59.542210,120.304092 59.067715,119.712692 58.038635,119.086502 
	C57.484051,119.051712 57.020695,118.948944 57.020695,118.948944 
	C57.020695,118.948944 57.012383,118.982788 57.032295,118.975517 
	C57.078178,117.980583 57.104145,116.992912 57.462395,115.581238 
	C58.500465,114.771675 59.206249,114.386124 60.250141,114.167679 
	C64.715462,115.310791 68.842674,116.286812 72.969894,117.262840 
	C72.013283,118.247017 71.056679,119.231186 70.034309,120.523132 
M64.413574,118.483986 
	C64.413574,118.483986 64.526031,118.416946 64.413574,118.483986 
z"/>
<path fill="#FBFBFB" opacity="1.000000" stroke="none" 
	d="
M116.964638,86.975151 
	C116.078583,88.451820 115.192520,89.928482 114.136246,92.055099 
	C113.309578,94.136169 112.653137,95.567276 111.734528,97.196014 
	C109.928085,99.542747 108.383797,101.691841 106.587738,104.052612 
	C104.536873,105.546143 102.737778,106.827980 100.787445,107.809586 
	C99.161095,105.306046 97.685982,103.102760 96.146286,100.573410 
	C95.171738,98.758942 94.261772,97.270531 93.249161,95.457977 
	C92.745918,94.089256 92.345337,93.044685 92.234909,91.798668 
	C93.357269,89.398689 94.189476,87.200150 95.247833,84.904922 
	C95.753609,84.609726 95.939621,84.345345 96.275650,83.851730 
	C96.677444,83.140320 96.835625,82.592262 97.462578,82.051834 
	C104.276001,82.107651 110.620651,82.155838 116.973175,82.601830 
	C116.975571,84.324799 116.970100,85.649979 116.964638,86.975151 
z"/>
<path fill="#D3D3D4" opacity="1.000000" stroke="none" 
	d="
M111.996689,96.998375 
	C112.653137,95.567276 113.309578,94.136169 114.036850,92.368484 
	C115.406067,93.117004 116.704460,94.202110 118.023994,95.665421 
	C118.045143,96.043625 118.021622,96.015205 117.853027,96.098129 
	C117.799690,96.463165 117.914932,96.745270 118.030182,97.027382 
	C117.036240,98.780144 116.042297,100.532913 115.010544,102.625504 
	C114.517365,103.329521 114.061989,103.693695 113.312180,103.742584 
	C113.632858,101.365433 114.247971,99.303566 114.935677,96.998375 
	C113.910622,96.998375 112.953651,96.998375 111.996689,96.998375 
z"/>
<path fill="#586062" opacity="1.000000" stroke="none" 
	d="
M116.965302,82.204033 
	C110.620651,82.155838 104.276001,82.107651 97.448372,81.760101 
	C96.965332,81.266037 96.965271,81.071335 97.388794,80.801636 
	C100.529770,80.560081 103.247162,80.393532 106.346977,80.317284 
	C111.469208,80.327744 116.209023,80.247887 120.948837,80.168037 
	C121.397339,80.608513 121.845840,81.048988 121.840851,81.811020 
	C119.913345,82.156395 118.439323,82.180214 116.965302,82.204033 
z"/>
<path fill="#E4E5E7" opacity="1.000000" stroke="none" 
	d="
M116.973175,82.601830 
	C118.439323,82.180214 119.913345,82.156395 121.832657,82.128937 
	C122.743179,83.224022 123.208412,84.322746 123.673653,85.421478 
	C121.716423,85.945076 119.759193,86.468681 117.383301,86.983719 
	C116.970100,85.649979 116.975571,84.324799 116.973175,82.601830 
z"/>
<path fill="#E4E5E7" opacity="1.000000" stroke="none" 
	d="
M120.962860,79.808746 
	C116.209023,80.247887 111.469208,80.327744 106.419807,79.918350 
	C108.029091,78.993042 109.929985,78.424423 111.872276,78.161087 
	C113.555473,77.932877 115.285591,78.050758 116.994972,78.015671 
	C118.059517,78.014931 119.124069,78.014191 120.587288,78.012817 
	C120.982933,78.491272 120.979912,78.970360 120.962860,79.808746 
z"/>
<path fill="#FBFBFB" opacity="1.000000" stroke="none" 
	d="
M73.418976,117.184204 
	C68.842674,116.286812 64.715462,115.310791 60.288017,113.811577 
	C62.676819,108.196434 65.365852,103.104485 68.465240,98.018440 
	C70.239479,97.959373 71.603363,97.894402 72.967247,97.829430 
	C75.694107,97.902458 78.420975,97.975494 81.581566,98.337463 
	C82.015297,98.626404 82.238487,99.028595 82.219574,99.354431 
	C83.265541,101.473755 84.330429,103.267227 85.523407,105.397797 
	C86.401772,106.520981 87.152054,107.307060 87.862709,108.113281 
	C87.823090,108.133415 87.794342,108.217514 87.794342,108.217514 
	C88.565353,110.230309 89.336365,112.243103 90.111130,114.624268 
	C84.699280,115.696953 79.283676,116.401260 73.418976,117.184204 
z"/>
<path fill="#888E8E" opacity="1.000000" stroke="none" 
	d="
M85.395325,105.060707 
	C84.330429,103.267227 83.265541,101.473755 82.530098,99.313026 
	C84.454346,98.873573 86.099289,98.518349 87.633171,98.790062 
	C90.526176,99.302536 93.355240,100.176033 96.210876,100.899467 
	C97.685982,103.102760 99.161095,105.306046 100.764923,108.040817 
	C100.893646,108.572304 100.834709,109.033524 100.450241,109.022552 
	C99.039314,109.011017 98.012848,109.010445 96.986382,109.009872 
	C95.068565,108.912743 93.146736,108.862434 91.234634,108.698647 
	C90.284592,108.617264 89.352394,108.327591 88.103233,108.174835 
	C87.794342,108.217514 87.823090,108.133415 87.900238,107.709656 
	C87.116699,106.544159 86.256012,105.802429 85.395325,105.060707 
z"/>
<path fill="#7F8488" opacity="1.000000" stroke="none" 
	d="
M96.994843,109.381569 
	C98.012848,109.010445 99.039314,109.011017 100.516815,109.260475 
	C100.967857,109.509361 101.056755,109.995171 100.805527,110.153320 
	C100.376366,110.860847 100.198448,111.410217 100.020523,111.959595 
	C99.014793,111.224152 98.009048,110.488708 96.994843,109.381569 
z"/>
<path fill="#888E8E" opacity="1.000000" stroke="none" 
	d="
M100.270546,111.966721 
	C100.198448,111.410217 100.376366,110.860847 101.042755,110.312469 
	C101.733490,110.843819 101.935760,111.374184 102.138031,111.904541 
	C101.951904,111.920914 101.765778,111.937286 101.300156,111.970428 
	C100.853951,111.982750 100.687263,111.978294 100.270546,111.966721 
z"/>
<path fill="#DCDCDD" opacity="1.000000" stroke="none" 
	d="
M118.039108,96.775696 
	C117.914932,96.745270 117.799690,96.463165 117.862228,96.100723 
	C118.042694,96.188271 118.045372,96.356148 118.039108,96.775696 
z"/>
<path fill="#AEB0B4" opacity="1.000000" stroke="none" 
	d="
M102.497742,111.918076 
	C101.935760,111.374184 101.733490,110.843819 101.293991,110.154312 
	C101.056755,109.995171 100.967857,109.509361 100.901283,109.271439 
	C100.834709,109.033524 100.893646,108.572304 100.916168,108.341064 
	C102.737778,106.827980 104.536873,105.546143 106.900436,104.210251 
	C108.680244,105.134193 109.895592,106.112183 111.077866,107.320602 
	C111.044807,107.551041 110.978577,108.011902 110.978577,108.011902 
	C110.978577,108.011902 111.008102,108.006187 110.836678,108.099976 
	C110.779144,108.504707 110.893036,108.815636 111.006927,109.126572 
	C110.989807,109.514252 110.972694,109.901924 110.949554,110.577682 
	C108.248169,111.221039 105.552803,111.576317 102.497742,111.918076 
z"/>
<path fill="#6D7375" opacity="1.000000" stroke="none" 
	d="
M118.001587,121.002045 
	C118.092461,120.967567 118.181740,120.931038 118.133453,120.945663 
	C117.995880,120.996811 118.000000,121.000000 118.001587,121.002045 
z"/>
<path fill="#C6C6C7" opacity="1.000000" stroke="none" 
	d="
M111.110931,107.090164 
	C109.895592,106.112183 108.680244,105.134193 107.152206,103.998573 
	C108.383797,101.691841 109.928085,99.542747 111.734528,97.196014 
	C112.953651,96.998375 113.910622,96.998375 114.935677,96.998375 
	C114.247971,99.303566 113.632858,101.365433 113.021858,103.828644 
	C112.693687,104.954407 112.361404,105.678848 111.791023,106.717300 
	C111.552925,107.031303 111.110931,107.090164 111.110931,107.090164 
z"/>
<path fill="#7F8488" opacity="1.000000" stroke="none" 
	d="
M111.005768,108.839005 
	C110.893036,108.815636 110.779144,108.504707 110.835052,108.085030 
	C111.004776,108.168007 111.004684,108.359718 111.005768,108.839005 
z"/>
<path fill="#7F8488" opacity="1.000000" stroke="none" 
	d="
M111.077866,107.320602 
	C111.110931,107.090164 111.552925,107.031303 111.775635,107.021667 
	C111.872246,107.322052 111.678108,107.581085 111.197243,107.900513 
	C110.978577,108.011902 111.044807,107.551041 111.077866,107.320602 
z"/>
<path fill="#ADAEB0" opacity="1.000000" stroke="none" 
	d="
M39.889214,43.204002 
	C40.155834,42.499889 40.466053,42.028008 41.020588,40.979820 
	C42.884224,38.977280 44.503548,37.551048 46.281822,36.116165 
	C46.440777,36.107513 46.756123,36.063698 46.818466,36.302910 
	C46.880810,36.542126 46.947742,37.031559 47.052391,37.288391 
	C47.425793,38.027504 47.694538,38.509781 47.959816,39.374725 
	C47.928131,40.768646 47.899918,41.779907 47.582062,42.953533 
	C45.622852,44.502613 43.953285,45.889328 42.078125,46.988262 
	C41.247120,45.768494 40.621716,44.836506 39.996307,43.904514 
	C39.996307,43.904514 39.932808,43.436230 39.889214,43.204002 
z"/>
<path fill="#6D7375" opacity="1.000000" stroke="none" 
	d="
M31.812000,56.733501 
	C31.911461,55.453968 32.010921,54.174438 32.192379,52.517403 
	C33.303082,50.760235 34.331787,49.380573 35.679420,48.253952 
	C36.686024,50.007961 37.373703,51.508919 38.005054,53.332542 
	C37.291561,54.767574 36.634388,55.879936 35.560089,56.995338 
	C34.032642,56.910084 32.922321,56.821793 31.812000,56.733501 
z"/>
<path fill="#7F8488" opacity="1.000000" stroke="none" 
	d="
M38.061378,53.009880 
	C37.373703,51.508919 36.686024,50.007961 35.976898,48.109230 
	C37.077522,46.464600 38.199593,45.217743 39.658985,43.937698 
	C40.621716,44.836506 41.247120,45.768494 41.938347,47.212650 
	C41.691010,47.840405 41.377861,47.955994 41.001453,47.921867 
	C40.847328,47.715691 40.756458,47.659233 40.665588,47.602776 
	C40.799988,47.757530 40.934391,47.912281 41.056168,48.401672 
	C40.049488,50.160835 39.055435,51.585358 38.061378,53.009880 
z"/>
<path fill="#C8C9CA" opacity="1.000000" stroke="none" 
	d="
M46.756123,36.063698 
	C46.756123,36.063698 46.440777,36.107513 46.243301,35.761757 
	C46.032005,34.943699 46.018185,34.471401 46.160965,33.850887 
	C45.880215,33.470303 45.442860,33.237934 45.003014,33.003036 
	C45.000519,33.000507 44.994774,32.996029 44.994774,32.996029 
	C43.385746,31.238796 41.776718,29.481562 39.856026,27.383959 
	C39.906425,27.303516 40.402164,26.512278 40.954208,25.405624 
	C42.741936,24.039017 44.473362,22.987823 46.546196,21.888819 
	C48.485973,23.241890 49.959530,24.833342 51.720181,25.986418 
	C53.270458,27.001717 55.141708,27.526917 56.935596,28.629059 
	C57.644650,32.404358 58.289314,35.819141 58.646595,39.617115 
	C57.905891,39.998367 57.452579,39.996437 56.798668,39.719791 
	C54.066135,37.962841 51.534203,36.480610 48.855244,34.838501 
	C48.469505,35.117409 48.230789,35.556183 47.996113,35.997482 
	C48.000153,36.000000 47.994896,35.991901 47.684563,35.998833 
	C47.168198,36.025078 46.962158,36.044388 46.756123,36.063698 
z"/>
<path fill="#D5D6D7" opacity="1.000000" stroke="none" 
	d="
M46.004364,33.999104 
	C46.018185,34.471401 46.032005,34.943699 46.084351,35.770409 
	C44.503548,37.551048 42.884224,38.977280 41.097412,40.708237 
	C37.483627,39.187183 31.988991,39.894680 31.998497,33.405342 
	C33.850613,32.460670 35.758453,31.331238 37.543941,31.499569 
	C39.510395,31.684963 41.364422,33.062820 43.882996,33.956230 
	C44.498566,33.991264 44.991547,33.989433 45.244736,33.993362 
	C45.666737,33.997898 45.835552,33.998501 46.004364,33.999104 
z"/>
<path fill="#C8C9CA" opacity="1.000000" stroke="none" 
	d="
M44.991547,33.989433 
	C44.991547,33.989433 44.498566,33.991264 44.252167,33.993233 
	C44.101170,33.671307 44.285286,33.409897 44.776443,33.103500 
	C44.994774,32.996029 45.000519,33.000507 45.001862,33.249001 
	C45.003204,33.497494 44.991547,33.989433 44.991547,33.989433 
z"/>
<path fill="#FAFBFB" opacity="1.000000" stroke="none" 
	d="
M41.064709,48.071583 
	C41.377861,47.955994 41.691010,47.840405 42.143940,47.500427 
	C43.953285,45.889328 45.622852,44.502613 47.869614,43.177505 
	C50.917477,45.566265 51.111866,50.388466 55.783497,50.328377 
	C55.150467,51.106255 54.201477,51.892921 54.332214,52.169857 
	C55.431824,54.499081 56.729195,56.734940 57.935169,59.346748 
	C56.585629,62.115543 55.267982,64.536484 53.681713,67.224533 
	C51.243492,68.164932 49.073895,68.838211 46.470394,69.407318 
	C43.339161,69.420860 40.641830,69.538559 37.944504,69.656265 
	C34.870403,69.656265 31.796301,69.656265 29.613729,69.656265 
	C31.217796,67.133583 32.604939,64.952049 34.163040,62.092247 
	C34.881737,59.940086 35.429478,58.466194 35.977219,56.992302 
	C36.634388,55.879936 37.291561,54.767574 38.005054,53.332542 
	C39.055435,51.585358 40.049488,50.160835 41.021641,48.369770 
	C40.999737,48.003227 41.064709,48.071583 41.064709,48.071583 
z"/>
<path fill="#A3A6AA" opacity="1.000000" stroke="none" 
	d="
M38.047672,69.957191 
	C40.641830,69.538559 43.339161,69.420860 46.500961,69.742867 
	C48.310818,72.117393 49.656200,74.052200 51.001583,75.987015 
	C51.001579,76.156189 51.001579,76.325371 51.000404,76.748360 
	C46.716438,74.754143 42.433640,72.506134 38.047672,69.957191 
z"/>
<path fill="#7A7F80" opacity="1.000000" stroke="none" 
	d="
M35.560089,56.995338 
	C35.429478,58.466194 34.881737,59.940086 34.152809,61.701572 
	C32.474102,62.254433 30.976583,62.519699 29.095524,62.893341 
	C28.812109,61.939983 28.912233,60.878250 29.019485,59.417286 
	C29.026613,59.018059 29.377935,58.949551 29.914944,58.931728 
	C30.930281,58.231640 31.408609,57.549377 31.886940,56.867111 
	C31.886940,56.867111 31.828390,56.811581 31.820196,56.772541 
	C32.922321,56.821793 34.032642,56.910084 35.560089,56.995338 
z"/>
<path fill="#6D7375" opacity="1.000000" stroke="none" 
	d="
M31.541285,56.806633 
	C31.408609,57.549377 30.930281,58.231640 30.093685,58.922680 
	C30.222157,58.203022 30.708893,57.474590 31.541285,56.806633 
z"/>
<path fill="#DBDBDC" opacity="1.000000" stroke="none" 
	d="
M57.967064,58.998890 
	C56.729195,56.734940 55.431824,54.499081 54.332214,52.169857 
	C54.201477,51.892921 55.150467,51.106255 55.795349,49.950195 
	C56.214439,48.336967 56.437145,47.329403 56.896435,45.251526 
	C58.980499,47.920513 60.417461,49.760784 61.909122,51.671097 
	C63.361530,50.716717 64.695374,49.840248 66.348305,49.144424 
	C68.822914,50.214657 70.911308,51.540070 73.150711,51.884960 
	C76.036324,52.329384 79.042877,51.988483 81.861229,52.284355 
	C81.607002,53.774559 81.067307,55.844383 81.436249,56.021507 
	C84.970993,57.718464 89.275734,57.713413 92.471634,61.014381 
	C93.341904,61.653862 94.177589,62.156631 94.348503,62.828510 
	C95.818588,68.607468 99.873604,69.740799 105.063118,69.019157 
	C105.697060,68.931000 106.359642,69.048874 107.008949,69.071266 
	C108.201683,70.626625 109.162453,72.470093 110.645844,73.664459 
	C112.503159,75.159897 114.789688,76.122246 116.942963,77.665192 
	C115.285591,78.050758 113.555473,77.932877 111.872276,78.161087 
	C109.929985,78.424423 108.029091,78.993042 106.037392,79.828033 
	C103.247162,80.393532 100.529770,80.560081 97.338120,80.466324 
	C94.245811,78.802086 91.627747,77.398155 88.858582,75.838417 
	C88.471344,76.122200 88.235214,76.561790 87.997879,77.332306 
	C87.995468,78.104439 87.994263,78.545662 87.992584,79.233101 
	C87.992104,79.479324 87.998177,79.971733 87.717651,80.102051 
	C86.620598,81.141441 85.804070,82.050529 84.671448,82.981651 
	C83.936203,83.049919 83.517067,83.096153 83.072815,82.782181 
	C83.026619,81.940979 83.005547,81.459984 82.986450,80.574158 
	C85.375923,74.513550 83.264442,70.172165 78.916183,66.069809 
	C76.394707,62.383324 72.905350,62.235783 69.122520,64.780754 
	C67.747932,65.705536 65.746162,65.698067 63.980011,65.772385 
	C61.942005,63.285511 59.954536,61.142200 57.967064,58.998890 
z"/>
<path fill="#FBFBFB" opacity="1.000000" stroke="none" 
	d="
M107.437630,69.048676 
	C106.359642,69.048874 105.697060,68.931000 105.063118,69.019157 
	C99.873604,69.740799 95.818588,68.607468 94.348503,62.828510 
	C94.177589,62.156631 93.341904,61.653862 92.448883,60.636585 
	C93.415497,56.819073 94.747635,53.437672 96.352310,49.872498 
	C97.811569,47.855598 98.998276,46.022469 100.184982,44.189335 
	C101.123596,43.091064 102.062202,41.992794 103.046906,40.577789 
	C103.093010,40.261063 103.411758,40.265064 103.644226,40.451561 
	C103.876686,40.638054 104.046165,41.022827 103.990982,41.373360 
	C104.856682,43.173721 105.777557,44.623547 106.698425,46.073372 
	C107.905418,47.726120 109.112419,49.378860 110.870163,51.043411 
	C111.420898,51.055225 111.825104,51.167774 111.825104,51.167774 
	C111.825104,51.167774 111.984207,51.156410 111.994118,51.077286 
	C113.359100,54.375278 114.714172,57.752403 116.457336,61.480133 
	C116.969864,63.809208 117.094284,65.787682 117.218704,67.766151 
	C116.703308,68.172646 116.187904,68.579147 115.006729,69.017311 
	C113.900414,69.064835 113.459877,69.080688 113.019341,69.096535 
	C111.301666,69.073051 109.583984,69.049561 107.437630,69.048676 
z"/>
<path fill="#D3D3D4" opacity="1.000000" stroke="none" 
	d="
M113.075027,69.430740 
	C113.459877,69.080688 113.900414,69.064835 114.671112,69.079041 
	C115.269730,69.571846 115.538193,70.034599 115.913811,70.744469 
	C115.057556,70.582703 114.094131,70.173820 113.075027,69.430740 
z"/>
<path fill="#DBDBDC" opacity="1.000000" stroke="none" 
	d="
M116.529968,72.546707 
	C116.478218,72.576721 116.581718,72.516685 116.529968,72.546707 
z"/>
<path fill="#9DA0A1" opacity="1.000000" stroke="none" 
	d="
M117.612869,67.797379 
	C117.094284,65.787682 116.969864,63.809208 116.822083,61.494247 
	C117.257919,61.093624 117.717125,61.029488 118.524117,60.975018 
	C119.660957,61.853199 120.531822,62.663006 121.211418,63.610077 
	C121.695717,64.284973 121.922760,65.144470 122.598282,66.001740 
	C122.774460,66.616547 122.616966,67.151199 122.225525,67.852844 
	C120.663391,67.956093 119.335220,67.892349 117.612869,67.797379 
z"/>
<path fill="#D3D3D4" opacity="1.000000" stroke="none" 
	d="
M134.177643,67.346634 
	C134.571899,67.079849 135.082214,67.105843 135.967163,67.245430 
	C136.346405,68.469131 136.351028,69.579239 136.082581,70.817108 
	C135.304245,69.843048 134.798981,68.741226 134.177643,67.346634 
z"/>
<path fill="#B9BABF" opacity="1.000000" stroke="none" 
	d="
M99.872154,44.017761 
	C98.998276,46.022469 97.811569,47.855598 96.020874,49.872353 
	C90.678734,51.987431 88.386864,47.658203 85.169769,45.690269 
	C86.926620,42.616791 88.563072,39.858017 90.199532,37.099247 
	C90.625999,36.799759 91.052475,36.500271 91.709335,36.080513 
	C94.479591,38.588894 97.019455,41.217537 99.872154,44.017761 
z"/>
<path fill="#BCBDBE" opacity="1.000000" stroke="none" 
	d="
M104.046165,41.022827 
	C104.046165,41.022827 103.876686,40.638054 103.803307,40.441769 
	C104.285217,40.170322 104.840508,40.095161 105.818771,40.023457 
	C106.241753,40.026913 106.217758,40.492214 105.873901,40.749557 
	C105.035416,41.012207 104.540794,41.017517 104.046165,41.022827 
z"/>
<path fill="#A1A3A5" opacity="1.000000" stroke="none" 
	d="
M103.990982,41.373363 
	C104.540794,41.017517 105.035416,41.012207 105.903732,40.980598 
	C107.456299,42.090477 108.635185,43.226658 109.954865,44.660538 
	C109.204247,45.303577 108.312843,45.648918 107.059937,46.033813 
	C105.777557,44.623547 104.856682,43.173721 103.990982,41.373363 
z"/>
<path fill="#AEB0B4" opacity="1.000000" stroke="none" 
	d="
M111.825493,50.955334 
	C111.825104,51.167774 111.420898,51.055225 111.212067,51.035366 
	C111.277451,50.924637 111.551666,50.833767 111.825493,50.955334 
z"/>
<path fill="#FDFDFD" opacity="1.000000" stroke="none" 
	d="
M90.006134,36.772621 
	C88.563072,39.858017 86.926620,42.616791 84.908615,45.913284 
	C83.683830,48.295944 82.840584,50.140881 81.997345,51.985813 
	C79.042877,51.988483 76.036324,52.329384 73.150711,51.884960 
	C70.911308,51.540070 68.822914,50.214657 66.299438,48.795956 
	C64.293488,45.510201 62.655491,42.753559 61.017494,39.996922 
	C60.815655,38.557571 60.613819,37.118217 60.364803,35.342434 
	C70.340065,33.273281 80.198341,30.266785 90.006134,36.772621 
z"/>
<path fill="#D5D6D7" opacity="1.000000" stroke="none" 
	d="
M60.687683,39.997620 
	C62.655491,42.753559 64.293488,45.510201 65.980347,48.615311 
	C64.695374,49.840248 63.361530,50.716717 61.909122,51.671097 
	C60.417461,49.760784 58.980499,47.920513 56.896435,45.251526 
	C56.437145,47.329403 56.214439,48.336967 55.979874,49.722710 
	C51.111866,50.388466 50.917477,45.566265 48.159256,43.015137 
	C47.899918,41.779907 47.928131,40.768646 48.353832,39.375984 
	C50.177456,39.628960 51.557396,40.585548 53.043934,40.798698 
	C54.298153,40.978539 55.676086,40.295574 56.999264,39.994507 
	C57.452579,39.996437 57.905891,39.998367 58.700050,40.000526 
	C59.479885,39.999939 59.918880,39.999130 60.687683,39.997620 
z"/>
<path fill="#586062" opacity="1.000000" stroke="none" 
	d="
M68.054886,98.012535 
	C65.365852,103.104485 62.676819,108.196434 59.949909,113.644485 
	C59.206249,114.386124 58.500465,114.771675 57.492096,115.210938 
	C56.859474,115.034889 56.529442,114.805122 56.197704,114.003265 
	C55.551098,111.511665 55.019897,109.543106 54.220470,107.690277 
	C53.705505,106.496727 52.796692,105.473099 52.064396,104.373314 
	C53.815941,101.019768 55.567482,97.666222 57.887287,94.320831 
	C61.655327,95.556831 64.855110,96.784683 68.054886,98.012535 
z"/>
<path fill="#6D7375" opacity="1.000000" stroke="none" 
	d="
M51.749405,104.341309 
	C52.796692,105.473099 53.705505,106.496727 54.220470,107.690277 
	C55.019897,109.543106 55.551098,111.511665 56.036407,113.747650 
	C53.339474,113.406441 50.802132,112.748741 48.072052,111.665939 
	C48.274250,110.190712 48.669197,109.140587 49.064140,108.090469 
	C49.854229,106.830078 50.644325,105.569687 51.749405,104.341309 
M53.517269,109.401138 
	C53.517269,109.401138 53.588066,109.518265 53.517269,109.401138 
z"/>
<path fill="#AEB0B4" opacity="1.000000" stroke="none" 
	d="
M48.724899,107.994797 
	C48.669197,109.140587 48.274250,110.190712 47.758217,111.560562 
	C47.637127,111.880287 47.289612,111.879181 47.116634,111.900078 
	C46.772949,111.943565 46.602242,111.966148 45.945007,112.001343 
	C45.458488,112.013954 44.996098,111.943878 44.996098,111.943878 
	C44.996098,111.943878 44.996838,112.003975 44.903015,111.764709 
	C44.529392,111.320740 44.249596,111.116028 43.969799,110.911324 
	C43.520554,110.298271 43.071308,109.685226 42.310345,109.036697 
	C41.672028,107.574005 41.345432,106.146790 41.010773,104.347733 
	C43.463696,105.283638 45.924675,106.591385 48.724899,107.994797 
z"/>
<path fill="#7C8384" opacity="1.000000" stroke="none" 
	d="
M57.025379,119.198959 
	C57.020695,118.948944 57.484051,119.051712 57.715008,119.105728 
	C57.758495,119.540192 57.571030,119.920624 57.383560,120.301064 
	C57.265728,120.017036 57.147896,119.733009 57.025379,119.198959 
z"/>
<path fill="#6D7375" opacity="1.000000" stroke="none" 
	d="
M43.735733,110.987228 
	C44.249596,111.116028 44.529392,111.320740 44.932259,111.757797 
	C44.503502,111.826942 43.951675,111.663742 43.204689,111.281746 
	C43.009525,111.062958 43.501663,111.063141 43.735733,110.987228 
z"/>
<path fill="#6D7375" opacity="1.000000" stroke="none" 
	d="
M45.066086,112.116356 
	C44.996098,111.943878 45.458488,112.013954 45.689934,112.042015 
	C45.659611,112.142990 45.397839,112.215912 45.066086,112.116356 
z"/>
<path fill="#CFCFD1" opacity="1.000000" stroke="none" 
	d="
M32.675217,97.238014 
	C32.999744,95.425003 33.337360,93.594444 34.082748,91.395416 
	C34.490524,91.026947 34.982243,91.017181 34.982243,91.017181 
	C35.697639,92.730148 36.413036,94.443115 37.182114,96.512314 
	C36.427509,96.911354 35.619228,96.954155 34.086449,97.035507 
	C33.151302,97.124123 32.940655,97.174187 32.730003,97.224251 
	C32.730003,97.224251 32.688301,97.220459 32.675217,97.238014 
z"/>
<path fill="#D5D6D7" opacity="1.000000" stroke="none" 
	d="
M32.746048,97.434601 
	C32.940655,97.174187 33.151302,97.124123 33.684715,97.037170 
	C33.904015,97.330719 33.710983,97.595947 33.202477,97.902130 
	C32.976574,98.008286 32.762089,97.644951 32.746048,97.434601 
z"/>
<path fill="#7A7F80" opacity="1.000000" stroke="none" 
	d="
M68.465240,98.018440 
	C64.855110,96.784683 61.655327,95.556831 58.157795,94.113358 
	C57.810272,92.882118 57.760502,91.866516 57.642181,90.471542 
	C59.035431,90.708817 60.503574,91.311104 61.954422,91.952515 
	C62.302666,92.106476 62.676449,92.648140 62.898422,92.576645 
	C67.645905,91.047485 70.012901,94.648170 72.927826,97.490204 
	C71.603363,97.894402 70.239479,97.959373 68.465240,98.018440 
z"/>
<path fill="#E4E5E7" opacity="1.000000" stroke="none" 
	d="
M34.987488,90.640625 
	C34.982243,91.017181 34.490524,91.026947 34.244774,91.036346 
	C33.484554,89.710617 32.970085,88.375481 32.727806,87.019867 
	C33.664242,88.087616 34.328487,89.175842 34.987488,90.640625 
z"/>
<path fill="#969B9D" opacity="1.000000" stroke="none" 
	d="
M96.146286,100.573410 
	C93.355240,100.176033 90.526176,99.302536 87.633171,98.790062 
	C86.099289,98.518349 84.454346,98.873573 82.549011,98.987183 
	C82.238487,99.028595 82.015297,98.626404 81.982056,98.399178 
	C81.654732,97.021950 81.360634,95.871956 81.033234,94.361008 
	C80.999931,94.000053 81.005585,93.994202 81.407585,94.004318 
	C84.202553,94.346291 86.595528,94.678146 89.332039,95.161018 
	C90.900993,95.468727 92.126404,95.625427 93.351814,95.782127 
	C94.261772,97.270531 95.171738,98.758942 96.146286,100.573410 
z"/>
<path fill="#969B9D" opacity="1.000000" stroke="none" 
	d="
M70.976509,88.421768 
	C71.152946,88.034966 71.352791,88.012657 72.203407,87.943581 
	C73.561295,87.889549 74.268410,87.882286 75.127533,88.146622 
	C75.850319,88.616081 76.421112,88.813942 77.044594,89.348854 
	C78.400055,91.122002 79.702820,92.558105 81.005585,93.994202 
	C81.005585,93.994202 80.999931,94.000053 80.995651,94.004379 
	C77.660889,92.267891 74.330399,90.527084 70.976509,88.421768 
z"/>
<path fill="#B4B5B6" opacity="1.000000" stroke="none" 
	d="
M64.030548,66.115952 
	C65.746162,65.698067 67.747932,65.705536 69.122520,64.780754 
	C72.905350,62.235783 76.394707,62.383324 78.495453,65.979469 
	C69.670593,65.769211 66.130722,68.829872 65.595833,76.775345 
	C64.729820,77.122368 63.908962,77.467255 63.619846,78.068031 
	C63.195415,78.949989 63.151131,80.014877 62.944878,81.001831 
	C60.549801,80.001343 58.154724,79.000854 55.341450,77.675568 
	C54.281731,76.901680 53.640213,76.452599 52.998692,76.003517 
	C52.554874,76.000153 52.111061,75.996788 51.334412,75.990219 
	C49.656200,74.052200 48.310818,72.117393 46.934868,69.847031 
	C49.073895,68.838211 51.243492,68.164932 53.988968,67.272385 
	C57.342766,68.705414 60.120689,70.357712 63.744869,72.513351 
	C63.865402,69.814209 63.947975,67.965080 64.030548,66.115952 
z"/>
<path fill="#E4E5E7" opacity="1.000000" stroke="none" 
	d="
M63.102570,81.316109 
	C63.151131,80.014877 63.195415,78.949989 63.619846,78.068031 
	C63.908962,77.467255 64.729820,77.122368 65.770958,77.085144 
	C68.880219,82.007889 72.312851,84.833755 77.918968,82.887337 
	C79.622925,82.295731 81.296806,81.617538 82.984467,80.978996 
	C83.005547,81.459984 83.026619,81.940979 82.994766,83.073143 
	C82.247177,84.439423 81.552513,85.154518 80.496155,85.892479 
	C78.414818,86.568573 76.695175,87.221794 74.975533,87.875015 
	C74.268410,87.882286 73.561295,87.889549 72.503288,87.911087 
	C69.188354,85.827034 66.224304,83.728714 63.102570,81.316109 
z"/>
<path fill="#A3A6AA" opacity="1.000000" stroke="none" 
	d="
M53.040977,76.324341 
	C53.640213,76.452599 54.281731,76.901680 54.968002,77.670624 
	C54.369591,77.542046 53.726429,77.093605 53.040977,76.324341 
z"/>
<path fill="#C2C3C4" opacity="1.000000" stroke="none" 
	d="
M64.469803,118.450470 
	C64.526031,118.416946 64.413574,118.483986 64.469803,118.450470 
z"/>
<path fill="#ADAEB0" opacity="1.000000" stroke="none" 
	d="
M75.127533,88.146622 
	C76.695175,87.221794 78.414818,86.568573 80.821335,86.070297 
	C84.663918,87.488892 87.819611,88.752541 90.891846,90.264023 
	C91.187164,91.007927 91.565956,91.504021 91.944748,92.000107 
	C92.345337,93.044685 92.745918,94.089256 93.249161,95.457977 
	C92.126404,95.625427 90.900993,95.468727 89.181824,94.846252 
	C84.789345,92.590919 80.890625,90.801361 76.991898,89.011803 
	C76.421112,88.813942 75.850319,88.616081 75.127533,88.146622 
z"/>
<path fill="#C2C3C4" opacity="1.000000" stroke="none" 
	d="
M92.234909,91.798668 
	C91.565956,91.504021 91.187164,91.007927 90.867485,89.908669 
	C88.946915,87.190208 86.967232,85.074913 84.987549,82.959618 
	C85.804070,82.050529 86.620598,81.141441 87.752197,80.453659 
	C89.661629,83.280548 90.726227,86.737617 95.021683,85.001610 
	C94.189476,87.200150 93.357269,89.398689 92.234909,91.798668 
z"/>
<path fill="#D5D6D7" opacity="1.000000" stroke="none" 
	d="
M89.009682,75.994232 
	C91.627747,77.398155 94.245811,78.802086 96.914536,80.541321 
	C96.965271,81.071335 96.965332,81.266037 96.979599,81.752472 
	C96.835625,82.592262 96.677444,83.140320 95.967606,83.701561 
	C92.941650,82.138786 90.467361,80.562836 87.993065,78.986877 
	C87.994263,78.545662 87.995468,78.104439 88.218163,77.222549 
	C88.712959,76.579620 88.902969,76.317070 89.009682,75.994232 
z"/>
<path fill="#CFCFD1" opacity="1.000000" stroke="none" 
	d="
M87.992584,79.233101 
	C90.467361,80.562836 92.941650,82.138786 95.723984,83.864914 
	C95.939621,84.345345 95.753609,84.609726 95.247833,84.904922 
	C90.726227,86.737617 89.661629,83.280548 88.032730,80.323349 
	C87.998177,79.971733 87.992104,79.479324 87.992584,79.233101 
z"/>
<path fill="#6D7375" opacity="1.000000" stroke="none" 
	d="
M85.523407,105.397797 
	C86.256012,105.802429 87.116699,106.544159 87.939857,107.689514 
	C87.152054,107.307060 86.401772,106.520981 85.523407,105.397797 
z"/>
<path fill="#CFCFD1" opacity="1.000000" stroke="none" 
	d="
M56.798668,39.719791 
	C55.676086,40.295574 54.298153,40.978539 53.043934,40.798698 
	C51.557396,40.585548 50.177456,39.628960 48.357300,38.993320 
	C47.694538,38.509781 47.425793,38.027504 47.282799,37.176338 
	C47.604000,36.535599 47.799450,36.263752 47.994896,35.991901 
	C47.994896,35.991901 48.000153,36.000000 48.215046,35.888344 
	C48.702160,35.577152 48.892937,35.317711 49.002266,34.998375 
	C51.534203,36.480610 54.066135,37.962841 56.798668,39.719791 
z"/>
<path fill="#D5D6D7" opacity="1.000000" stroke="none" 
	d="
M47.684563,35.998833 
	C47.799450,36.263752 47.604000,36.535599 47.178146,36.919502 
	C46.947742,37.031559 46.880810,36.542126 46.818466,36.302910 
	C46.962158,36.044388 47.168198,36.025078 47.684563,35.998833 
z"/>
<path fill="#ADAEB0" opacity="1.000000" stroke="none" 
	d="
M41.034264,48.035133 
	C40.934391,47.912281 40.799988,47.757530 40.665588,47.602776 
	C40.756458,47.659233 40.847328,47.715691 41.001453,47.921867 
	C41.064709,48.071583 40.999737,48.003227 41.034264,48.035133 
z"/>
<path fill="#D5D6D7" opacity="1.000000" stroke="none" 
	d="
M48.855244,34.838501 
	C48.892937,35.317711 48.702160,35.577152 48.211006,35.885826 
	C48.230789,35.556183 48.469505,35.117409 48.855244,34.838501 
z"/>
<path fill="#CFCFD1" opacity="1.000000" stroke="none" 
	d="
M45.244736,33.993362 
	C44.991547,33.989433 45.003204,33.497494 45.004356,33.251530 
	C45.442860,33.237934 45.880215,33.470303 46.160965,33.850887 
	C45.835552,33.998501 45.666737,33.997898 45.244736,33.993362 
z"/>
<path fill="#CFCFD1" opacity="1.000000" stroke="none" 
	d="
M63.980011,65.772385 
	C63.947975,67.965080 63.865402,69.814209 63.744869,72.513351 
	C60.120689,70.357712 57.342766,68.705414 54.257591,67.005272 
	C55.267982,64.536484 56.585629,62.115543 57.935173,59.346748 
	C59.954536,61.142200 61.942005,63.285511 63.980011,65.772385 
z"/>
<path fill="#FBFBFB" opacity="1.000000" stroke="none" 
	d="
M82.986450,80.574158 
	C81.296806,81.617538 79.622925,82.295731 77.918968,82.887337 
	C72.312851,84.833755 68.880219,82.007889 66.053879,77.197433 
	C66.130722,68.829872 69.670593,65.769211 78.563759,66.373962 
	C83.264442,70.172165 85.375923,74.513550 82.986450,80.574158 
z"/>
<path fill="#CFCFD1" opacity="1.000000" stroke="none" 
	d="
M81.861221,52.284355 
	C82.840584,50.140881 83.683830,48.295944 84.788223,46.227993 
	C88.386864,47.658203 90.678734,51.987431 95.748337,50.056118 
	C94.747635,53.437672 93.415497,56.819073 92.106110,60.578274 
	C89.275734,57.713413 84.970993,57.718464 81.436249,56.021507 
	C81.067307,55.844383 81.607002,53.774559 81.861221,52.284355 
z"/>
<path fill="#B4B6BB" opacity="1.000000" stroke="none" 
	d="
M84.671448,82.981651 
	C86.967232,85.074913 88.946915,87.190208 90.950958,89.660843 
	C87.819611,88.752541 84.663918,87.488892 81.183029,86.047424 
	C81.552513,85.154518 82.247177,84.439423 83.019882,83.433350 
	C83.517067,83.096153 83.936203,83.049919 84.671448,82.981651 
z"/>
<path fill="#CFCFD1" opacity="1.000000" stroke="none" 
	d="
M88.858582,75.838417 
	C88.902969,76.317070 88.712959,76.579620 88.219376,76.891632 
	C88.235214,76.561790 88.471344,76.122200 88.858582,75.838417 
z"/>
<path fill="#586062" opacity="1.000000" stroke="none" 
	d="
M53.552666,109.459702 
	C53.588066,109.518265 53.517269,109.401138 53.552666,109.459702 
z"/>
<path fill="#A1A3A5" opacity="1.000000" stroke="none" 
	d="
M77.044594,89.348854 
	C80.890625,90.801361 84.789345,92.590919 88.838287,94.695236 
	C86.595528,94.678146 84.202553,94.346291 81.407585,94.004318 
	C79.702820,92.558105 78.400055,91.122002 77.044594,89.348854 
z"/>
</svg>